<svg xmlns="http://www.w3.org/2000/svg" xmlns:xlink="http://www.w3.org/1999/xlink" version="1.1" id="Layer_1" x="0px" y="0px" viewBox="0 0 1237.3 696.6" style="enable-background:new 0 0 1237.3 696.6;" xml:space="preserve">
<style type="text/css">
	.st0{clip-path:url(#SVGID_2_);fill-rule:evenodd;clip-rule:evenodd;fill:url(#SVGID_3_);}
	.st1{clip-path:url(#SVGID_2_);fill-rule:evenodd;clip-rule:evenodd;fill:#B8BB76;}
	.st2{clip-path:url(#SVGID_2_);fill-rule:evenodd;clip-rule:evenodd;fill:#3EB495;}
	.st3{clip-path:url(#SVGID_2_);fill:none;}
	.st4{clip-path:url(#SVGID_2_);fill-rule:evenodd;clip-rule:evenodd;fill:#2869A5;}
	.st5{fill-rule:evenodd;clip-rule:evenodd;fill:#24292F;}
	.st6{fill-rule:evenodd;clip-rule:evenodd;fill:url(#SVGID_4_);}
	.st7{fill:none;}
	.st8{fill-rule:evenodd;clip-rule:evenodd;fill:#FFFFFE;}
	.st9{fill-rule:evenodd;clip-rule:evenodd;fill:#4C4C5C;}
	.st10{fill-rule:evenodd;clip-rule:evenodd;fill:#34383D;}
	.st11{opacity:0.457;}
	.st12{fill-rule:evenodd;clip-rule:evenodd;fill:#4C525A;}
	.st13{clip-path:url(#SVGID_6_);fill-rule:evenodd;clip-rule:evenodd;fill:#4C525A;}
	.st14{fill-rule:evenodd;clip-rule:evenodd;fill:url(#SVGID_7_);}
	.st15{fill:#00DC82;}
	.st16{fill-rule:evenodd;clip-rule:evenodd;fill:url(#SVGID_8_);}
	.st17{fill-rule:evenodd;clip-rule:evenodd;fill:url(#SVGID_9_);}
	.st18{fill-rule:evenodd;clip-rule:evenodd;fill:url(#SVGID_10_);}
	.st19{fill-rule:evenodd;clip-rule:evenodd;fill:#FFFFFF;}
	.st20{fill-rule:evenodd;clip-rule:evenodd;fill:url(#SVGID_11_);}
	.st21{fill-rule:evenodd;clip-rule:evenodd;fill:#6E6C74;}
	.st22{fill-rule:evenodd;clip-rule:evenodd;fill:url(#SVGID_12_);}
	.st23{fill-rule:evenodd;clip-rule:evenodd;fill:#272A2F;}
	.st24{opacity:0.1028;}
	.st25{fill:#343434;}
	.st26{fill:url(#SVGID_13_);}
	.st27{opacity:0.4091;fill-rule:evenodd;clip-rule:evenodd;fill:#F53642;enable-background:new    ;}
</style>
<g>
	<defs>
		<path id="SVGID_1_" d="M3.5,1.1h954.9v105.6L358,118.4L356,682.6L1.8,676.4L3.5,1.1z"/>
	</defs>
	<clipPath id="SVGID_2_">
		<use xlink:href="#SVGID_1_" style="overflow:visible;"/>
	</clipPath>
	
		<linearGradient id="SVGID_3_" gradientUnits="userSpaceOnUse" x1="525.3705" y1="668.6138" x2="525.3705" y2="15.3528" gradientTransform="matrix(1 0 0 1 0 16.7244)">
		<stop offset="0" style="stop-color:#042af7"/>
		<stop offset="1" style="stop-color:#042e3d"/>
	</linearGradient>
	<path class="st0" d="M299.2,164.1c107.2-9.6,107.2-9.5,196.2-63.3c89-53.7,209.3-241.3,462.4,94.4s-91,441.8-91,441.8   S179.3,658.6,52,563.6C-75.3,468.5,40.3,149.6,299.2,164.1z"/>
	<path class="st1" d="M416.5,638H284.1c-3-1-5.9-2.5-8.6-5.2c-8.6-8.7-11.2-14.7-11.2-14.7c0,0.3,25.1,7.4,21.9,1.8   c-3-5.2-24.3-5.1-30.2-12.5c-5.9-7.2-13-20.4-13-20.5c0,0.2,18.5,11.8,18.1,6.2c-0.4-5.3-21.5-14.6-26.2-23.6   c-4.6-8.6,18.4,6.9,20.8,4c2.3-2.2-22.1-18-26.9-25.9c-5-7.5-5.8-22-2.3-18.8c3.4,3.1,9,8.2,9,4.8c-0.2-3.1-14.7-23.4-14.6-30.2   c-0.1-6.3,15.5,11.7,16.7,9.3c1-1.9-17.9-20.6-19.7-31.4c-1.9-10.6-0.4-19.7,0.5-19.5s9.5,14.2,11.5,13.5c1.7-0.3-2.8-65.4,28-79.3   c25.6,16.5,49,59.1,49.1,59.1c1.8-0.6,4-13.3,4.9-13.7c0.8-0.4,5.4,5.1,8.3,12.3c2.6,7.1-2.8,27.6-0.5,28.4   c1.9,0.5,5-17.9,8.4-14.2c3.1,3.5,3.5,21.8,5.8,23.4c2.1,1.5,3-4.2,3.8-7.7c0.8-3.4,8.6,3.5,9.9,9.3c0.9,5.7-2.8,28.3,0.7,27.4   c3-1.2,6.5-21.9,9.7-16c2.8,5.6-2,23.5,2.3,25c3.9,1.3,5-14.9,5.1-14.8c0,0,5.6,7.9,8.4,13.3c2.6,5.2-6.1,22.4-2.5,25.4   c3.3,2.8,6.9-18,7.1-17.9c0,0,3.5,2.6,7.3,9.6c3.9,6.9-2,15.7,1.6,22.4c3.7,6.6,10.5-3.9,10.5-3.9C419,593.6,419.9,620.4,416.5,638   z"/>
	<path class="st2" d="M961.4,233c-19,7.4-69.5,16-69.5,16c-3.6,0.2-7.3-0.3-11.3-2c-12.6-5.7-17.9-11.1-17.9-11   c0.1,0.3,29.6-2.4,24-7.1c-5.3-4.3-27.8,4.6-37.1-0.9c-9.2-5.2-22.1-16.4-22.1-16.4c0,0.2,24.4,5,21.7-0.9   c-2.6-5.4-28.8-6.6-37.4-14.4c-8.4-7.2,22.3-0.2,23.6-4.2c1.5-3.3-30.8-10.1-39-16.5c-8.4-5.9-15.1-20.9-10.2-19   c4.9,1.9,12.9,5,11.5,1.4c-1.5-3.3-25.1-18.8-27.8-26c-2.7-6.7,21.2,6,21.5,3c0.2-2.4-27.4-14.5-33.7-25.3   c-6.4-10.4-8.5-20.7-7.5-20.9c1-0.1,15.8,11.1,17.7,9.7c1.7-1-29.7-68.2-2.8-95.5c33.8,7.1,76.1,42.6,76.2,42.5   c1.7-1.3-1.2-15.8-0.4-16.6c0.7-0.8,7.8,3.2,13.8,9.7c5.7,6.4,8.4,30.4,11.1,30.3c2.2-0.3-2-21,3.1-18.5   c4.7,2.5,12.6,21.7,15.7,22.4c2.8,0.7,1.4-5.7,0.8-9.7c-0.5-3.9,10.5,0.2,14.2,5.8c3.3,5.7,8.6,31.2,11.9,28.8   c2.7-2.5-2.1-25.9,3.7-20.9c5.3,4.8,7.5,25.7,12.7,25.6c4.7-0.2-0.8-17.8-0.7-17.8c0,0,9.2,6.1,14.3,10.6c4.9,4.5,2.7,26.2,7.7,28   c4.6,1.6-0.1-21.9,0.2-21.9c0,0,4.7,1.4,11.7,7.2c6.9,5.8,4.3,17.5,10.9,23.1c6.6,5.5,9.5-8.5,9.6-8.4   c34.7,23.4,46.7,51.5,50.2,71.5C1032,194.8,989.1,222.3,961.4,233z"/>
	<path class="st3" d="M961.4,233c-19,7.4-69.5,16-69.5,16c-3.6,0.2-7.3-0.3-11.3-2c-12.6-5.7-17.9-11.1-17.9-11   c0.1,0.3,29.6-2.4,24-7.1c-5.3-4.3-27.8,4.6-37.1-0.9c-9.2-5.2-22.1-16.4-22.1-16.4c0,0.2,24.4,5,21.7-0.9   c-2.6-5.4-28.8-6.6-37.4-14.4c-8.4-7.2,22.3-0.2,23.6-4.2c1.5-3.3-30.8-10.1-39-16.5c-8.4-5.9-15.1-20.9-10.2-19   c4.9,1.9,12.9,5,11.5,1.4c-1.5-3.3-25.1-18.8-27.8-26c-2.7-6.7,21.2,6,21.5,3c0.2-2.4-27.4-14.5-33.7-25.3   c-6.4-10.4-8.5-20.7-7.5-20.9c1-0.1,15.8,11.1,17.7,9.7c1.7-1-29.7-68.2-2.8-95.5c33.8,7.1,76.1,42.6,76.2,42.5   c1.7-1.3-1.2-15.8-0.4-16.6c0.7-0.8,7.8,3.2,13.8,9.7c5.7,6.4,8.4,30.4,11.1,30.3c2.2-0.3-2-21,3.1-18.5   c4.7,2.5,12.6,21.7,15.7,22.4c2.8,0.7,1.4-5.7,0.8-9.7c-0.5-3.9,10.5,0.2,14.2,5.8c3.3,5.7,8.6,31.2,11.9,28.8   c2.7-2.5-2.1-25.9,3.7-20.9c5.3,4.8,7.5,25.7,12.7,25.6c4.7-0.2-0.8-17.8-0.7-17.8c0,0,9.2,6.1,14.3,10.6c4.9,4.5,2.7,26.2,7.7,28   c4.6,1.6-0.1-21.9,0.2-21.9c0,0,4.7,1.4,11.7,7.2c6.9,5.8,4.3,17.5,10.9,23.1c6.6,5.5,9.5-8.5,9.6-8.4   c34.7,23.4,46.7,51.5,50.2,71.5C1032,194.8,989.1,222.3,961.4,233z"/>
	<path class="st4" d="M277.2,404.4c13.8,15.7,24.7,34.6,34.2,53.2c17.1,33.3,28.5,69.4,33.8,106.4l1.8-0.6   c-5.3-36.3-16.4-71.6-32.9-104.7c-9.6-19.3-21-39-35.3-55.4C278,402.4,276.4,403.5,277.2,404.4z"/>
	<path class="st4" d="M347,564c0,0,3.3-17.4,32-29C379,535,370.8,556.6,347,564z"/>
	<path class="st4" d="M345,550c0,0,4.1-19.5,37-33C382,517,372.2,541.2,345,550z"/>
	<path class="st4" d="M343,540c0,0,1.3-19.9,32-38C375,502,368.7,527.4,343,540z"/>
	<path class="st4" d="M338,528c0,0-0.8-19.9,28-41C366,487,362.4,512.8,338,528z"/>
	<path class="st4" d="M334,512c0,0-0.4-22.9,34-48C368,464,363.1,493.9,334,512z"/>
	<path class="st4" d="M329,496c0,0-0.4-23.9,35-50C364,446,359,477.1,329,496z"/>
	<path class="st4" d="M325.2,483c0,0-4.2-23.5,26.8-55C352,428,352,459.6,325.2,483z"/>
	<path class="st4" d="M317.8,466c0,0-6.4-20.4,16.9-52C334.8,414,338.4,442,317.8,466z"/>
	<path class="st4" d="M308.5,449c0,0-5.1-18.3,17.4-48C325.9,401,328.2,426.4,308.5,449z"/>
	<path class="st4" d="M300.2,433c0,0-3.5-15.5,16.8-42C317,391,317.8,412.7,300.2,433z"/>
	<path class="st4" d="M293.9,425c0,0-5-13,8.6-41C302.5,384,306.1,403.1,293.9,425z"/>
	<path class="st4" d="M286.4,413c0,0-5.3-10.8,4.4-32C290.9,381,295.4,396.5,286.4,413z"/>
	<path class="st4" d="M281,406c0,0-15.4-2.6-18-24C263,382,280.4,389,281,406z"/>
	<path class="st4" d="M255,403.7c0,0,11.2-4.2,31,7.9C286,411.6,270.2,414.6,255,403.7z"/>
	<path class="st4" d="M347,562.7c0,0-13.7-11-43-2.4C304,560.2,324.1,571.4,347,562.7z"/>
	<path class="st4" d="M343,540.3c0,0-13.7-14.7-49-9.1C294,531.3,315,547,343,540.3z"/>
	<path class="st4" d="M339,527.5c0,0-11.9-16.2-47-14.3C292,513.2,311,531.3,339,527.5z"/>
	<path class="st4" d="M335,511.4c0,0-14.4-17.4-57-15.2C278,496.2,300.9,515.6,335,511.4z"/>
	<path class="st4" d="M329,494.4c0,0-14.9-18.5-59-16.2C270,478.2,293.7,498.8,329,494.4z"/>
	<path class="st4" d="M324,482c0,0-11.6-20.4-55-25C269,457,288.9,480.9,324,482z"/>
	<path class="st4" d="M317,464c0,0-10.3-19.1-50-24C267,440,284.8,462.4,317,464z"/>
	<path class="st4" d="M307,447c0,0-7.8-17.4-44-26C263,421,277.4,442,307,447z"/>
	<path class="st4" d="M293,425c0,0-8.4-11.2-39-14C254,411,268.3,424.1,293,425z"/>
	<path class="st4" d="M345,549.9c0,0-15.4-12-49-1.8C296,548.1,318.7,560.1,345,549.9z"/>
	<path class="st2" d="M428.1,609.2c-15.1,14.7-58.2,43.9-58.2,43.9c-2.8,1.4-6,2.3-9.8,2.2c-12.2-0.2-18.3-2.8-18.3-2.8   c0.2,0.2,23.1-12.1,17-14c-5.8-1.6-20.9,13.2-30.3,12c-9.2-1.1-23.5-5.6-23.5-5.7c0.1,0.2,21.5-4.3,17.2-8.1   c-3.9-3.5-25.5,4.5-35.2,1.2c-9.3-2.9,18-7.8,17.7-11.5c0.1-3.2-28.3,2.4-37.2,0.1c-8.8-1.9-19.4-11.7-14.8-11.9   c4.6-0.1,12.2-0.4,9.8-2.8c-2.3-2.1-26.8-6.6-31.4-11.5c-4.5-4.5,19.2-2.4,18.4-5c-0.6-2-27.1-2.3-36-8.9   c-8.7-6.2-14-13.8-13.2-14.3c0.8-0.4,16.6,3.6,17.6,1.7c1-1.4-47.4-44.9-35-76.2c29.8-5.9,76.2,8.3,76.3,8.2   c0.9-1.7-6.4-12.3-6-13.2c0.3-0.9,7.4-0.1,14.5,3.1c6.8,3.3,17.2,21.7,19.4,20.6c1.7-1-8.8-16.3-3.8-16   c4.7,0.4,17.7,13.2,20.4,12.7c2.6-0.4-0.8-5.1-2.6-8.1c-1.8-3,8.5-3.5,13.5-0.2c4.7,3.5,17.6,22.3,19.5,19.2   c1.3-2.9-10.6-20.2-4.2-18.2c5.9,2,14.9,18.2,19.1,16.3c3.7-1.8-6.8-14.1-6.6-14.2c0,0,9.5,1.8,15.3,3.7c5.5,1.9,11.2,20.3,15.9,20   c4.3-0.2-7.6-17.7-7.4-17.8c0,0,4.3-0.5,11.9,1.8s9.5,12.7,16.7,14.9s4.8-10.1,4.9-10.1c36.1,7,65.2,40.6,65.2,40.6   S444.6,593.2,428.1,609.2z"/>
	<path class="st3" d="M428.1,609.2c-15.1,14.7-58.2,43.9-58.2,43.9c-2.8,1.4-6,2.3-9.8,2.2c-12.2-0.2-18.3-2.8-18.3-2.8   c0.2,0.2,23.1-12.1,17-14c-5.8-1.6-20.9,13.2-30.3,12c-9.2-1.1-23.5-5.6-23.5-5.7c0.1,0.2,21.5-4.3,17.2-8.1   c-3.9-3.5-25.5,4.5-35.2,1.2c-9.3-2.9,18-7.8,17.7-11.5c0.1-3.2-28.3,2.4-37.2,0.1c-8.8-1.9-19.4-11.7-14.8-11.9   c4.6-0.1,12.2-0.4,9.8-2.8c-2.3-2.1-26.8-6.6-31.4-11.5c-4.5-4.5,19.2-2.4,18.4-5c-0.6-2-27.1-2.3-36-8.9   c-8.7-6.2-14-13.8-13.2-14.3c0.8-0.4,16.6,3.6,17.6,1.7c1-1.4-47.4-44.9-35-76.2c29.8-5.9,76.2,8.3,76.3,8.2   c0.9-1.7-6.4-12.3-6-13.2c0.3-0.9,7.4-0.1,14.5,3.1c6.8,3.3,17.2,21.7,19.4,20.6c1.7-1-8.8-16.3-3.8-16   c4.7,0.4,17.7,13.2,20.4,12.7c2.6-0.4-0.8-5.1-2.6-8.1c-1.8-3,8.5-3.5,13.5-0.2c4.7,3.5,17.6,22.3,19.5,19.2   c1.3-2.9-10.6-20.2-4.2-18.2c5.9,2,14.9,18.2,19.1,16.3c3.7-1.8-6.8-14.1-6.6-14.2c0,0,9.5,1.8,15.3,3.7c5.5,1.9,11.2,20.3,15.9,20   c4.3-0.2-7.6-17.7-7.4-17.8c0,0,4.3-0.5,11.9,1.8s9.5,12.7,16.7,14.9s4.8-10.1,4.9-10.1c36.1,7,65.2,40.6,65.2,40.6   S444.6,593.2,428.1,609.2z"/>
</g>
<path class="st5" d="M1212,102.1H365.4c-13.1,0-23.7,11.4-23.7,25.4v506.1c0,14,10.6,25.4,23.7,25.4H1212  c13.1,0,23.7-11.4,23.7-25.4V127.5C1235.7,113.5,1225.1,102.1,1212,102.1z M1214.2,611.6h-854v-488h854V611.6z"/>
<linearGradient id="SVGID_4_" gradientUnits="userSpaceOnUse" x1="293.6" y1="212.2756" x2="293.6" y2="134.2756" gradientTransform="matrix(1 0 0 1 0 16.7244)">
	<stop offset="0" style="stop-color:#328AD9"/>
	<stop offset="1" style="stop-color:#44B0F5"/>
</linearGradient>
<path class="st6" d="M248.5,229h90.2c6.3,0,11.5-5.2,11.5-11.5v-55c0-6.3-5.2-11.5-11.5-11.5h-90.2c-6.3,0-11.5,5.2-11.5,11.5v55  C237,223.8,242.2,229,248.5,229z"/>
<path class="st7" d="M248.5,229h90.2c6.3,0,11.5-5.2,11.5-11.5v-55c0-6.3-5.2-11.5-11.5-11.5h-90.2c-6.3,0-11.5,5.2-11.5,11.5v55  C237,223.8,242.2,229,248.5,229z"/>
<path class="st8" d="M281.5,176.2l31,14.3l-31,14.3V176.2z"/>
<path class="st9" d="M447.4,696.6c-1.1,0-1.4-1.4-0.4-1.9l82.5-40.6c0.1-0.1,0.3-0.1,0.4-0.1h71.9c1.1,0,1.4,1.6,0.3,1.9  l-120.9,40.6c-0.1,0-0.2,0.1-0.3,0.1H447.4z"/>
<path class="st10" d="M447.4,696.6c-1.1,0-1.4-1.4-0.4-1.9l82.5-40.6c0.1-0.1,0.3-0.1,0.4-0.1h71.9c1.1,0,1.4,1.6,0.3,1.9  l-120.9,40.6c-0.1,0-0.2,0.1-0.3,0.1H447.4z"/>
<path class="st9" d="M459.4,696.6c-1.1,0-1.4-1.4-0.4-1.9l82.5-40.6c0.1-0.1,0.3-0.1,0.4-0.1h71.9c1.1,0,1.4,1.6,0.3,1.9  l-120.9,40.6c-0.1,0-0.2,0.1-0.3,0.1H459.4z"/>
<path class="st10" d="M459.4,696.6c-1.1,0-1.4-1.4-0.4-1.9l82.5-40.6c0.1-0.1,0.3-0.1,0.4-0.1h71.9c1.1,0,1.4,1.6,0.3,1.9  l-120.9,40.6c-0.1,0-0.2,0.1-0.3,0.1H459.4z"/>
<g class="st11">
	<path class="st9" d="M459.4,696.6c-1.1,0-1.4-1.4-0.4-1.9l82.5-40.6c0.1-0.1,0.3-0.1,0.4-0.1h71.9c1.1,0,1.4,1.6,0.3,1.9   l-120.9,40.6c-0.1,0-0.2,0.1-0.3,0.1H459.4z"/>
	<path class="st12" d="M459.4,696.6c-1.1,0-1.4-1.4-0.4-1.9l82.5-40.6c0.1-0.1,0.3-0.1,0.4-0.1h71.9c1.1,0,1.4,1.6,0.3,1.9   l-120.9,40.6c-0.1,0-0.2,0.1-0.3,0.1H459.4z"/>
</g>
<path class="st9" d="M1130.7,696.6c1.1,0,1.4-1.4,0.4-1.9l-82.5-40.6c-0.1-0.1-0.3-0.1-0.4-0.1h-71.9c-1.1,0-1.4,1.6-0.3,1.9  l120.9,40.6c0.1,0,0.2,0.1,0.3,0.1H1130.7z"/>
<path class="st10" d="M1130.7,696.6c1.1,0,1.4-1.4,0.4-1.9l-82.5-40.6c-0.1-0.1-0.3-0.1-0.4-0.1h-71.9c-1.1,0-1.4,1.6-0.3,1.9  l120.9,40.6c0.1,0,0.2,0.1,0.3,0.1H1130.7z"/>
<path class="st9" d="M1118.7,696.6c1.1,0,1.4-1.4,0.4-1.9l-82.5-40.6c-0.1-0.1-0.3-0.1-0.4-0.1h-71.9c-1.1,0-1.4,1.6-0.3,1.9  l120.9,40.6c0.1,0,0.2,0.1,0.3,0.1H1118.7z"/>
<path class="st10" d="M1118.7,696.6c1.1,0,1.4-1.4,0.4-1.9l-82.5-40.6c-0.1-0.1-0.3-0.1-0.4-0.1h-71.9c-1.1,0-1.4,1.6-0.3,1.9  l120.9,40.6c0.1,0,0.2,0.1,0.3,0.1H1118.7z"/>
<g>
	<defs>
		<path id="SVGID_5_" d="M342,626.6h894V659H342V626.6z"/>
	</defs>
	<clipPath id="SVGID_6_">
		<use xlink:href="#SVGID_5_" style="overflow:visible;"/>
	</clipPath>
	<path class="st13" d="M1212.3,102H365.7c-13.1,0-23.7,11.4-23.7,25.4v506.1c0,14,10.6,25.4,23.7,25.4h846.6   c13.1,0,23.7-11.4,23.7-25.4V127.4C1236,113.4,1225.4,102,1212.3,102z M1214.5,611.5h-854v-488h854V611.5z"/>
</g>
<g class="st11">
	<path class="st9" d="M1118.7,696.6c1.1,0,1.4-1.4,0.4-1.9l-82.5-40.6c-0.1-0.1-0.3-0.1-0.4-0.1h-71.9c-1.1,0-1.4,1.6-0.3,1.9   l120.9,40.6c0.1,0,0.2,0.1,0.3,0.1H1118.7z"/>
	<path class="st12" d="M1118.7,696.6c1.1,0,1.4-1.4,0.4-1.9l-82.5-40.6c-0.1-0.1-0.3-0.1-0.4-0.1h-71.9c-1.1,0-1.4,1.6-0.3,1.9   l120.9,40.6c0.1,0,0.2,0.1,0.3,0.1H1118.7z"/>
</g>
<linearGradient id="SVGID_7_" gradientUnits="userSpaceOnUse" x1="652.1053" y1="54.2538" x2="946.0554" y2="718.7737" gradientTransform="matrix(1 0 0 1 0 16.7244)">
	<stop offset="0" style="stop-color:#5D636B"/>
	<stop offset="1" style="stop-color:#373E45"/>
</linearGradient>
<path class="st14" d="M1212.3,102H365.7c-13.1,0-23.7,11.4-23.7,25.4v506.1c0,14,10.6,25.4,23.7,25.4h846.6  c13.1,0,23.7-11.4,23.7-25.4V127.4C1236,113.4,1225.4,102,1212.3,102z M347.4,127.4c0-11.1,8.3-20,18.3-20h846.6  c10,0,18.3,8.9,18.3,20v506.1c0,11.1-8.3,20-18.3,20H365.7c-10,0-18.3-8.9-18.3-20L347.4,127.4L347.4,127.4z"/>
<path class="st15" d="M376.5,636c3,0,5.5-2.5,5.5-5.5s-2.5-5.5-5.5-5.5s-5.5,2.5-5.5,5.5S373.5,636,376.5,636z"/>
<path class="st5" d="M450,50.6v354.8c0,17.5-14.3,31.6-31.9,31.6H260.9c-17.6,0-31.9-14.1-31.9-31.6V50.6  c0-17.4,14.3-31.6,31.9-31.6h157.3C435.7,19,450,33.2,450,50.6z"/>
<linearGradient id="SVGID_8_" gradientUnits="userSpaceOnUse" x1="173.9231" y1="142.5964" x2="500.8712" y2="278.2064" gradientTransform="matrix(1 0 0 1 0 16.7244)">
	<stop offset="0" style="stop-color:#33383E"/>
	<stop offset="1" style="stop-color:#000000;stop-opacity:1.000000e-02"/>
</linearGradient>
<path class="st16" d="M450,50.6v354.8c0,17.5-14.3,31.6-31.9,31.6H260.9c-17.6,0-31.9-14.1-31.9-31.6V50.6  c0-17.4,14.3-31.6,31.9-31.6h157.3C435.7,19,450,33.2,450,50.6z"/>
<linearGradient id="SVGID_9_" gradientUnits="userSpaceOnUse" x1="206.4578" y1="112.2088" x2="492.0908" y2="324.9138" gradientTransform="matrix(1 0 0 1 0 16.7244)">
	<stop offset="0" style="stop-color:#5D636B"/>
	<stop offset="1" style="stop-color:#373E45"/>
</linearGradient>
<path class="st17" d="M450,50.6v354.8c0,17.5-14.3,31.6-31.9,31.6H260.9c-17.6,0-31.9-14.1-31.9-31.6V50.6  c0-17.4,14.3-31.6,31.9-31.6h157.3C435.7,19,450,33.2,450,50.6z"/>
<path class="st5" d="M448,52.3v351.4c0,17.3-14,31.3-31.3,31.3H262.3c-17.3,0-31.3-14-31.3-31.3V52.3C231,35,245,21,262.3,21h154.4  C434,21,448,35,448,52.3z"/>
<linearGradient id="SVGID_10_" gradientUnits="userSpaceOnUse" x1="176.5095" y1="144.2537" x2="498.3495" y2="276.5947" gradientTransform="matrix(1 0 0 1 0 16.7244)">
	<stop offset="0" style="stop-color:#33383E"/>
	<stop offset="1" style="stop-color:#000000;stop-opacity:1.000000e-02"/>
</linearGradient>
<path class="st18" d="M448,52.3v351.4c0,17.3-14,31.3-31.3,31.3H262.3c-17.3,0-31.3-14-31.3-31.3V52.3C231,35,245,21,262.3,21h154.4  C434,21,448,35,448,52.3z"/>
<path class="st19" d="M439.2,51.3c0-12.6-10.2-22.8-22.8-22.8H261.8c-12.6,0-22.8,10.2-22.8,22.8v351.4c0,12.6,10.2,22.8,22.8,22.8  h154.6c12.6,0,22.8-10.2,22.8-22.8V51.3z"/>
<linearGradient id="SVGID_11_" gradientUnits="userSpaceOnUse" x1="450" y1="80.2756" x2="450" y2="163.2756" gradientTransform="matrix(1 0 0 1 0 16.7244)">
	<stop offset="0" style="stop-color:#000000"/>
	<stop offset="1" style="stop-color:#272A2F"/>
</linearGradient>
<path class="st20" d="M449.6,180H449V97h0.6c0.8,0,1.4,1.8,1.4,4.1v74.8C451,178.2,450.4,180,449.6,180z"/>
<path class="st21" d="M230,126h-0.6c-0.8,0-1.4-1.2-1.4-2.7V99.7c0-1.5,0.6-2.7,1.4-2.7h0.6V126z"/>
<linearGradient id="SVGID_12_" gradientUnits="userSpaceOnUse" x1="229" y1="80.2756" x2="229" y2="109.2756" gradientTransform="matrix(1 0 0 1 0 16.7244)">
	<stop offset="0" style="stop-color:#5D636B"/>
	<stop offset="1" style="stop-color:#272A2F"/>
</linearGradient>
<path class="st22" d="M230,126h-0.6c-0.8,0-1.4-1.2-1.4-2.7V99.7c0-1.5,0.6-2.7,1.4-2.7h0.6V126z"/>
<path class="st23" d="M230,126h-0.6c-0.8,0-1.4-1.2-1.4-2.7V99.7c0-1.5,0.6-2.7,1.4-2.7h0.6V126z"/>
<svg xmlns="http://www.w3.org/2000/svg" viewBox="-0 -220 120 600"><defs><style>.cls-1{fill:#040405;}.cls-2{fill:#042af7;}</style></defs><title>Recurso 4</title><g id="Capa_2" data-name="Capa 2"><g id="Capa_1-2" data-name="Capa 1"><path class="cls-1" d="M256.23,49.41C265.34,23.89,283,7.64,309.85,3.64c26.32-3.91,47.48,6.24,63.37,27.6,2.37,3.18,1.73,4.34-1.36,6.35C345.46,54.71,318.19,70.36,290.93,86c-3.75,2.15-3.87,3.59-1.5,6.91,9.28,13,25.5,18.83,40.56,14.14S355.88,87.46,355.61,71c-.07-4,.93-6.29,4.47-8.27C366.45,59.1,372.56,55,378.66,51c2.41-1.6,3.4-2.29,4.5,1.46,13.18,45-23.12,90.81-69.53,86.6-27.09-2.46-45.52-17.79-56.09-42.71-.58-1.37-1.1-2.77-1.64-4.15C252.25,77.91,251.47,63.64,256.23,49.41ZM341.46,42a5.24,5.24,0,0,0-.68-1.16c-10.33-8.69-26.76-9.75-39.37-2.57-12.14,6.91-20.56,22.86-18.73,35.13.37,2.51,1.26,2.18,2.86,1.21,2.7-1.64,5.46-3.19,8.19-4.78Z"/><path class="cls-1" d="M165,78.08c-2.44,13.48-7.06,26-16.42,36.33-18.22,20-40.66,27.61-66.79,19.84-25.53-7.59-40.46-25.77-46.08-51.57-2.23-10.22-1.55-20.51,1-30.68.64-2.52,1.39-3.29,4-1.81,5.92,3.38,11.93,6.62,18.08,9.57,3.1,1.49,4.16,3.13,4,6.79-1.06,20.38,11.94,36.78,31.44,39.82,15.79,2.46,28.06-3.89,36.93-16.6,8.48-12.16,8.11-28.74-.08-40.94A37.19,37.19,0,0,0,71.79,45c-2.09,2.39-3.57,2.56-6.19,1.08-6.07-3.44-12.26-6.69-18.52-9.77-2.45-1.21-2.59-2.21-1.18-4.46,24.71-39.35,85.78-38.29,108.92,2A6.38,6.38,0,0,0,157,36.4c-.53,3.87,2.86,6.08,4,9.31C164.74,56.26,165.11,67.11,165,78.08Z"/><path class="cls-2" d="M164.58,78.08c.08-11-.3-21.82-4.05-32.37-1.15-3.23-4.53-5.44-4-9.31,2.22-.74,3.81.8,5.55,1.63,22.43,10.8,43.43,23.77,61.69,40.88a29.27,29.27,0,0,0,2.7,1.88c0-2.85,0-4.93,0-7,0-14.47-.12-28.95.05-43.42,0-3.39-.74-4.59-4.34-4.55-9.62.11-9.62-.06-4.82-8.34,2.49-4.29,5.31-8.44,7.33-12.94,1.65-3.67,4-4.66,7.73-4.49,6.14.27,12.32.28,18.46,0,3.76-.18,5.16.66,5.05,4.8-.35,13-.24,25.94-.25,38.91,0,1.93-.58,4,1.12,5.67-4.77,14.23-4,28.5-.33,42.78-1.69,5.69-.58,11.53-.78,17.3s-.12,11.65,0,17.47c.06,2.48-.54,3.48-3.28,3.55a17.54,17.54,0,0,1-11.52-3.44A699.43,699.43,0,0,0,164.58,78.08Z"/><path class="cls-1" d="M206.39,154.42c-67.17,0-134.33-.08-201.5.17-5.43,0-4.9-2.57-4.86-6,0-1.72.73-2.38,2.41-2.28,1.49.09,3,0,4.5,0q200.25,0,400.5,0c2.45,0,5.78-1.5,5.8,3.56,0,3.92-1.29,4.54-4.86,4.53Q307.39,154.33,206.39,154.42Z"/><path class="cls-1" d="M61.78,179.88H59.23V162.8H54.95v-2.52H66.2v2.52H61.78Z"/><path class="cls-1" d="M84.43,179.88H81.32l-5.15-19.6H79l3.84,15,3.78-15h2.91Z"/><path class="cls-1" d="M120.66,174.14h-2.58v-3.36h-3.19v-2.46h3.19v-3.7h2.58v3.7h3.19v2.46h-3.19Z"/><path class="cls-1" d="M154.18,179.88H151.6V162.75l-1.76-.06v-2.41h4.34Z"/><path class="cls-1" d="M187.89,179.88h-2.58l-8.65-14.45v14.45h-2.55v-19.6h2.55l8.65,14.39V160.28h2.58Z"/><path class="cls-1" d="M212.53,179.88H210V162.8H205.7v-2.52H217v2.52h-4.42Z"/><path class="cls-1" d="M244,179.88h-9.3v-19.6h9.35v2.52h-6.8v5.52h4.37l-.76,2.46h-3.61v6.8H244Z"/><path class="cls-1" d="M275.48,179.88h-2.6l-2-6a2.77,2.77,0,0,1-.64.06h-4.34v5.94h-2.55v-19.6H270a4.77,4.77,0,0,1,4.06,1.82,7.47,7.47,0,0,1,1.37,4.62,9.47,9.47,0,0,1-1,5,5.31,5.31,0,0,1-1.29,1.37Zm-9.63-8.4h3.78a2.62,2.62,0,0,0,2.24-.87,3.88,3.88,0,0,0,.78-1.79,15.28,15.28,0,0,0,.14-2.1,4.08,4.08,0,0,0-.91-3,3.73,3.73,0,0,0-2.65-.85h-3.39Z"/><path class="cls-1" d="M308.43,179.88h-2.58l-8.65-14.45v14.45h-2.55v-19.6h2.55l8.65,14.39V160.28h2.58Z"/><path class="cls-1" d="M337.72,179.88h-9.3v-19.6h9.35v2.52H331v5.52h4.37l-.76,2.46H331v6.8h6.75Z"/><path class="cls-1" d="M361.66,179.88h-2.55V162.8h-4.28v-2.52h11.26v2.52h-4.42Z"/><path class="cls-2" d="M164.88,114.44v4.43h-8.1v3.67h6.75V127h-6.75v8.53h-5.13V114.44Z"/><path class="cls-2" d="M168.24,128.8V114.44h5.13v14.23c0,1.67.46,2.78,2.7,2.78s2.7-1.11,2.7-2.78V114.44h5.13V128.8c0,4.43-1.73,7.07-7.83,7.07S168.24,133.23,168.24,128.8Z"/><path class="cls-2" d="M188.06,135.49V114.44h5.13v16.63h7.42v4.43Z"/><path class="cls-2" d="M204,135.49V114.44h5.13v16.63h7.42v4.43Z"/></g></g></svg><svg xmlns="http://www.w3.org/2000/svg" viewBox="170 -430 1522.24 1799.88"><defs><style>.cls-1{fill:#040405;}.cls-2{fill:#042af7;}</style></defs><title>Recurso 4</title><g id="Capa_2" data-name="Capa 2"><g id="Capa_1-2" data-name="Capa 1"><path class="cls-1" d="M256.23,49.41C265.34,23.89,283,7.64,309.85,3.64c26.32-3.91,47.48,6.24,63.37,27.6,2.37,3.18,1.73,4.34-1.36,6.35C345.46,54.71,318.19,70.36,290.93,86c-3.75,2.15-3.87,3.59-1.5,6.91,9.28,13,25.5,18.83,40.56,14.14S355.88,87.46,355.61,71c-.07-4,.93-6.29,4.47-8.27C366.45,59.1,372.56,55,378.66,51c2.41-1.6,3.4-2.29,4.5,1.46,13.18,45-23.12,90.81-69.53,86.6-27.09-2.46-45.52-17.79-56.09-42.71-.58-1.37-1.1-2.77-1.64-4.15C252.25,77.91,251.47,63.64,256.23,49.41ZM341.46,42a5.24,5.24,0,0,0-.68-1.16c-10.33-8.69-26.76-9.75-39.37-2.57-12.14,6.91-20.56,22.86-18.73,35.13.37,2.51,1.26,2.18,2.86,1.21,2.7-1.64,5.46-3.19,8.19-4.78Z"/><path class="cls-1" d="M165,78.08c-2.44,13.48-7.06,26-16.42,36.33-18.22,20-40.66,27.61-66.79,19.84-25.53-7.59-40.46-25.77-46.08-51.57-2.23-10.22-1.55-20.51,1-30.68.64-2.52,1.39-3.29,4-1.81,5.92,3.38,11.93,6.62,18.08,9.57,3.1,1.49,4.16,3.13,4,6.79-1.06,20.38,11.94,36.78,31.44,39.82,15.79,2.46,28.06-3.89,36.93-16.6,8.48-12.16,8.11-28.74-.08-40.94A37.19,37.19,0,0,0,71.79,45c-2.09,2.39-3.57,2.56-6.19,1.08-6.07-3.44-12.26-6.69-18.52-9.77-2.45-1.21-2.59-2.21-1.18-4.46,24.71-39.35,85.78-38.29,108.92,2A6.38,6.38,0,0,0,157,36.4c-.53,3.87,2.86,6.08,4,9.31C164.74,56.26,165.11,67.11,165,78.08Z"/><path class="cls-2" d="M164.58,78.08c.08-11-.3-21.82-4.05-32.37-1.15-3.23-4.53-5.44-4-9.31,2.22-.74,3.81.8,5.55,1.63,22.43,10.8,43.43,23.77,61.69,40.88a29.27,29.27,0,0,0,2.7,1.88c0-2.85,0-4.93,0-7,0-14.47-.12-28.95.05-43.42,0-3.39-.74-4.59-4.34-4.55-9.62.11-9.62-.06-4.82-8.34,2.49-4.29,5.31-8.44,7.33-12.94,1.65-3.67,4-4.66,7.73-4.49,6.14.27,12.32.28,18.46,0,3.76-.18,5.16.66,5.05,4.8-.35,13-.24,25.94-.25,38.91,0,1.93-.58,4,1.12,5.67-4.77,14.23-4,28.5-.33,42.78-1.69,5.69-.58,11.53-.78,17.3s-.12,11.65,0,17.47c.06,2.48-.54,3.48-3.28,3.55a17.54,17.54,0,0,1-11.52-3.44A699.43,699.43,0,0,0,164.58,78.08Z"/><path class="cls-1" d="M206.39,154.42c-67.17,0-134.33-.08-201.5.17-5.43,0-4.9-2.57-4.86-6,0-1.72.73-2.38,2.41-2.28,1.49.09,3,0,4.5,0q200.25,0,400.5,0c2.45,0,5.78-1.5,5.8,3.56,0,3.92-1.29,4.54-4.86,4.53Q307.39,154.33,206.39,154.42Z"/><path class="cls-1" d="M61.78,179.88H59.23V162.8H54.95v-2.52H66.2v2.52H61.78Z"/><path class="cls-1" d="M84.43,179.88H81.32l-5.15-19.6H79l3.84,15,3.78-15h2.91Z"/><path class="cls-1" d="M120.66,174.14h-2.58v-3.36h-3.19v-2.46h3.19v-3.7h2.58v3.7h3.19v2.46h-3.19Z"/><path class="cls-1" d="M154.18,179.88H151.6V162.75l-1.76-.06v-2.41h4.34Z"/><path class="cls-1" d="M187.89,179.88h-2.58l-8.65-14.45v14.45h-2.55v-19.6h2.55l8.65,14.39V160.28h2.58Z"/><path class="cls-1" d="M212.53,179.88H210V162.8H205.7v-2.52H217v2.52h-4.42Z"/><path class="cls-1" d="M244,179.88h-9.3v-19.6h9.35v2.52h-6.8v5.52h4.37l-.76,2.46h-3.61v6.8H244Z"/><path class="cls-1" d="M275.48,179.88h-2.6l-2-6a2.77,2.77,0,0,1-.64.06h-4.34v5.94h-2.55v-19.6H270a4.77,4.77,0,0,1,4.06,1.82,7.47,7.47,0,0,1,1.37,4.62,9.47,9.47,0,0,1-1,5,5.31,5.31,0,0,1-1.29,1.37Zm-9.63-8.4h3.78a2.62,2.62,0,0,0,2.24-.87,3.88,3.88,0,0,0,.78-1.79,15.28,15.28,0,0,0,.14-2.1,4.08,4.08,0,0,0-.91-3,3.73,3.73,0,0,0-2.65-.85h-3.39Z"/><path class="cls-1" d="M308.43,179.88h-2.58l-8.65-14.45v14.45h-2.55v-19.6h2.55l8.65,14.39V160.28h2.58Z"/><path class="cls-1" d="M337.72,179.88h-9.3v-19.6h9.35v2.52H331v5.52h4.37l-.76,2.46H331v6.8h6.75Z"/><path class="cls-1" d="M361.66,179.88h-2.55V162.8h-4.28v-2.52h11.26v2.52h-4.42Z"/><path class="cls-2" d="M164.88,114.44v4.43h-8.1v3.67h6.75V127h-6.75v8.53h-5.13V114.44Z"/><path class="cls-2" d="M168.24,128.8V114.44h5.13v14.23c0,1.67.46,2.78,2.7,2.78s2.7-1.11,2.7-2.78V114.44h5.13V128.8c0,4.43-1.73,7.07-7.83,7.07S168.24,133.23,168.24,128.8Z"/><path class="cls-2" d="M188.06,135.49V114.44h5.13v16.63h7.42v4.43Z"/><path class="cls-2" d="M204,135.49V114.44h5.13v16.63h7.42v4.43Z"/></g></g></svg>





</svg>