<svg xmlns="http://www.w3.org/2000/svg" xmlns:xlink="http://www.w3.org/1999/xlink" width="410.893" height="295.035" viewBox="0 0 410.893 295.035"><defs><linearGradient id="a" x1="0.5" y1="1" x2="0.5" gradientUnits="objectBoundingBox"><stop offset="0" stop-color="gray" stop-opacity="0.251"/><stop offset="0.54" stop-color="gray" stop-opacity="0.122"/><stop offset="1" stop-color="gray" stop-opacity="0.102"/></linearGradient></defs><g transform="translate(0 -0.054)"><ellipse cx="205.446" cy="24.973" rx="205.446" ry="24.973" transform="translate(0 245.144)" fill="#007bff" opacity="0.1"/><path d="M997.49,731.443s10.713-13.635,9.846-27.164a26.284,26.284,0,0,1,4.135-16.1,44.724,44.724,0,0,1,5.035-6.321" transform="translate(-645.956 -449.083)" fill="none" stroke="#535461" stroke-miterlimit="10" stroke-width="2"/><path d="M1047.468,654.661c-.757,1.893.481,8.751.481,8.751s5.62-4.12,6.373-6.016a3.69,3.69,0,1,0-6.854-2.734Z" transform="translate(-677.411 -430.411)" fill="#007bff"/><path d="M1020.933,673.462c.393,2,5.145,7.082,5.145,7.082s2.477-6.513,2.084-8.516a3.692,3.692,0,0,0-7.244,1.433Z" transform="translate(-660.729 -440.983)" fill="#007bff"/><path d="M1000.7,719.517c1.352,1.529,8.034,3.51,8.034,3.51s-1.15-6.873-2.5-8.4a3.692,3.692,0,1,0-5.531,4.892Z" transform="translate(-647.398 -469.019)" fill="#007bff"/><path d="M995.488,760.684c1.073,1.735,7.321,4.818,7.321,4.818s.03-6.983-1.044-8.7a3.691,3.691,0,1,0-6.277,3.885Z" transform="translate(-644.341 -495.375)" fill="#007bff"/><path d="M1039.238,696.939c-1.885.775-8.758-.368-8.758-.368s4.043-5.667,5.943-6.443a3.691,3.691,0,0,1,2.815,6.825Z" transform="translate(-666.822 -454.136)" fill="#007bff"/><path d="M1032.68,743.5c-2.029.18-8.24-2.981-8.24-2.981s5.564-4.193,7.6-4.374a3.689,3.689,0,0,1,.643,7.351Z" transform="translate(-663.001 -483.409)" fill="#007bff"/><path d="M1018.5,788.42c-1.974.518-8.629-1.547-8.629-1.547s4.778-5.076,6.751-5.594a3.692,3.692,0,1,1,1.878,7.141Z" transform="translate(-653.786 -511.886)" fill="#007bff"/><path d="M1047.468,654.661c-.757,1.893.481,8.751.481,8.751s5.62-4.12,6.373-6.016a3.69,3.69,0,1,0-6.854-2.734Z" transform="translate(-677.411 -430.411)" opacity="0.25"/><path d="M1020.933,673.462c.393,2,5.145,7.082,5.145,7.082s2.477-6.513,2.084-8.516a3.692,3.692,0,0,0-7.244,1.433Z" transform="translate(-660.729 -440.983)" opacity="0.25"/><path d="M1000.7,719.517c1.352,1.529,8.034,3.51,8.034,3.51s-1.15-6.873-2.5-8.4a3.692,3.692,0,1,0-5.531,4.892Z" transform="translate(-647.398 -469.019)" opacity="0.25"/><path d="M995.488,760.684c1.073,1.735,7.321,4.818,7.321,4.818s.03-6.983-1.044-8.7a3.691,3.691,0,1,0-6.277,3.885Z" transform="translate(-644.341 -495.375)" opacity="0.25"/><path d="M1039.238,696.939c-1.885.775-8.758-.368-8.758-.368s4.043-5.667,5.943-6.443a3.691,3.691,0,0,1,2.815,6.825Z" transform="translate(-666.822 -454.136)" opacity="0.25"/><path d="M1032.68,743.5c-2.029.18-8.24-2.981-8.24-2.981s5.564-4.193,7.6-4.374a3.689,3.689,0,0,1,.643,7.351Z" transform="translate(-663.001 -483.409)" opacity="0.25"/><path d="M1018.5,788.42c-1.974.518-8.629-1.547-8.629-1.547s4.778-5.076,6.751-5.594a3.692,3.692,0,1,1,1.878,7.141Z" transform="translate(-653.786 -511.886)" opacity="0.25"/><path d="M997.73,750.48s15.322-8.122,20.012-20.839a26.293,26.293,0,0,1,10.291-13.043,44.228,44.228,0,0,1,7.167-3.738" transform="translate(-646.108 -468.69)" fill="none" stroke="#535461" stroke-miterlimit="10" stroke-width="2"/><path d="M1102.536,689.3c-1.47,1.426-3.106,8.2-3.106,8.2s6.807-1.492,8.266-2.914a3.687,3.687,0,1,0-5.145-5.281Z" transform="translate(-710.431 -453.127)" fill="#007bff"/><path d="M1074.2,695.748c-.448,1.988,1.838,8.571,1.838,8.571s4.9-4.954,5.351-6.943a3.691,3.691,0,0,0-7.2-1.628Z" transform="translate(-694.437 -456.047)" fill="#007bff"/><path d="M1036.936,729.646c.614,1.944,5.921,6.465,5.921,6.465s1.731-6.751,1.1-8.7a3.692,3.692,0,1,0-7.038,2.231Z" transform="translate(-670.786 -476.266)" fill="#007bff"/><path d="M1015.516,765.17c.279,2.021,4.745,7.372,4.745,7.372s2.848-6.362,2.573-8.38a3.691,3.691,0,1,0-7.314,1.007Z" transform="translate(-657.338 -499.122)" fill="#007bff"/><path d="M1079.784,727.149c-2.04-.051-7.854-3.9-7.854-3.9s6.009-3.536,8.045-3.484a3.691,3.691,0,0,1-.191,7.38Z" transform="translate(-693.038 -473.06)" fill="#007bff"/><path d="M1056.539,767.544c-1.929-.658-6.329-6.064-6.329-6.064s6.788-1.58,8.718-.919a3.69,3.69,0,0,1-2.389,6.983Z" transform="translate(-679.3 -498.758)" fill="#007bff"/><path d="M1024.449,802.672c-2.01-.323-7.259-4.91-7.259-4.91s6.424-2.7,8.453-2.378a3.691,3.691,0,0,1-1.176,7.288Z" transform="translate(-658.416 -520.867)" fill="#007bff"/><path d="M361.49,83.568c-20.3-.706-39.638-7.259-58.1-14.429s-36.752-15.116-56.569-18.894c-12.742-2.444-27.318-2.79-37.587,4.043-9.875,6.557-13.073,17.906-14.789,28.439-1.294,7.924-2.054,16.263,1.47,23.68,2.459,5.145,6.821,9.482,9.839,14.414,10.5,17.163,3.076,38.329-8.3,55.092-5.336,7.861-11.526,15.359-15.646,23.731s-6.02,17.957-2.418,26.495c3.572,8.453,12.081,14.819,21.3,19.288,18.722,9.082,40.8,11.68,62.3,13.15,47.624,3.26,95.5,1.838,143.25.434,17.674-.522,35.422-1.051,52.806-3.782,9.655-1.518,19.622-3.929,26.627-9.743,8.9-7.38,11.1-19.879,5.145-29.134-10-15.524-37.649-19.38-44.64-36.039-3.844-9.17.107-19.383,5.7-27.888,11.992-18.248,32.1-34.253,33.158-55.107.735-14.333-8.938-28.667-23.889-35.444-15.664-7.1-37.385-6.207-48.94,5.55C400.326,79.533,379.414,84.19,361.49,83.568Z" transform="translate(-127.325 -48.59)" fill="#007bff" opacity="0.1"/><path d="M618.27,346h-9.14a19.542,19.542,0,0,1,.132-2.11c.287-2.492,1.169-6.535,3.9-8.431a3.059,3.059,0,0,1,4.576,3.727l-.033.077a6.208,6.208,0,0,0-.342,3.458,14.478,14.478,0,0,0,.9,3.278Z" transform="translate(-400.328 -229.633)" fill="#007bff"/><path d="M618.27,359.394h-9.14a19.543,19.543,0,0,1,.132-2.11,19.133,19.133,0,0,1,8.086-1.169A14.479,14.479,0,0,0,618.27,359.394Z" transform="translate(-400.328 -243.027)" opacity="0.1"/><path d="M610.075,369.7c-2.37,1.93-5.686,1.959-9.078,1.132-6.946-1.7-14.2-7.012-14.2-7.012a16.23,16.23,0,0,1,1.588-1.536,20.315,20.315,0,0,1,18.185-4.638,8.982,8.982,0,0,1,5.311,3.55C613.335,363.32,614.092,366.433,610.075,369.7Z" transform="translate(-386.205 -243.657)" fill="#007bff"/><path d="M620.906,378.119s-5.285-4.5-12.566,1.47" transform="translate(-399.829 -255.946)" opacity="0.1"/><path d="M207.167,473.441s-17.031-13.106-17.887-1.224,3.429,23.033,7.1,24.01S207.167,473.441,207.167,473.441Z" transform="translate(-134.713 -313.339)" fill="#007bff"/><path d="M207.167,473.441s-17.031-13.106-17.887-1.224,3.429,23.033,7.1,24.01S207.167,473.441,207.167,473.441Z" transform="translate(-134.713 -313.339)" opacity="0.2"/><path d="M207.8,495.46s.4,10.934,3.8,9.188S210.005,495.949,207.8,495.46Z" transform="translate(-146.497 -331.19)" opacity="0.1"/><path d="M300.744,722.1a19.976,19.976,0,0,1-1.838,4.833c-.209.4-.437.8-.687,1.22-4.01,6.667-13.279,9.434-13.279,7.964s-.915-5.27-3.245-4.168a14.279,14.279,0,0,1-5.88.86c-6.413-.489-5.329-6.81-3.2-12.165a49.324,49.324,0,0,1,2.418-5.145c.8-1.47,1.4-2.433,1.4-2.433l24.5,3.921A11.181,11.181,0,0,1,300.744,722.1Z" transform="translate(-186.444 -468.823)" fill="#007bff"/><path d="M601,379.819c-6.946-1.7-14.2-7.012-14.2-7.012a16.223,16.223,0,0,1,1.588-1.536q1.588.838,3.19,1.783A60.636,60.636,0,0,1,601,379.819Z" transform="translate(-386.205 -252.643)" opacity="0.1"/><path d="M307.727,722.135A79.545,79.545,0,0,1,282,715.553c.8-1.47,1.4-2.433,1.4-2.433l24.5,3.921A10.968,10.968,0,0,1,307.727,722.135Z" transform="translate(-193.427 -468.855)" opacity="0.1"/><path d="M357.393,460.123a47.479,47.479,0,0,1-4.873,16.73A42.423,42.423,0,0,1,337.3,493.936s-3.918,3.186-4.164-5.634c0,0-1.716-1.838-13.477,6.193,0,0-7.1,4.337-5.145-13.756V480.7c0-.011-.176.114-.5.309h-.022c-.838.515-2.617,1.569-4.734,2.631-3.877,1.948-8.9,3.929-11.393,2.679A37.488,37.488,0,0,1,293.7,499.4c-2.47,4.495-6.366,8.89-12.466,10.875a8.766,8.766,0,0,1-8.894-2.168l-.7-.7s-5.392,3.675-8.086,2.448-4.9-4.653-1.228-11.026c0,0,.195-.529.434-1.3.6-1.966,1.47-5.513.059-6.046,0,0-57.091,2.94-64.684-47.778s42.633-69.337,56.841-67.378c0,0,37.734-47.532,89.922-16.906S357.393,460.123,357.393,460.123Z" transform="translate(-139.892 -238.644)" fill="#007bff"/><path d="M354.13,423.12s62.193-.243,57.926,80.367" transform="translate(-239.047 -285.437)" fill="none" stroke="#000" stroke-miterlimit="10" stroke-width="1" opacity="0.1"/><path d="M298.906,739.978c-.209.4-.437.8-.687,1.22-4.01,6.667-13.279,9.434-13.279,7.964s-.915-5.27-3.245-4.168a14.279,14.279,0,0,1-5.88.86c-6.413-.489-5.329-6.81-3.2-12.165C278.623,736.707,289.5,741.2,298.906,739.978Z" transform="translate(-186.444 -481.865)" opacity="0.2"/><path d="M402.168,754.774c-2.47,4.495-6.366,8.89-12.466,10.875a8.766,8.766,0,0,1-8.894-2.168l-.7-.7s-5.392,3.675-8.086,2.448-4.9-4.653-1.228-11.026c0,0,.195-.529.434-1.3C376.034,754.594,388.757,758.2,402.168,754.774Z" transform="translate(-248.363 -494.014)" opacity="0.2"/><path d="M516.13,671.493c22.173-11.515,25.973-20.7,25.973-20.7" transform="translate(-341.508 -429.432)" opacity="0.1"/><path d="M553.551,696.64a42.423,42.423,0,0,1-15.219,17.083s-3.918,3.186-4.164-5.634c0,0-1.716-1.838-13.477,6.193,0,0-7.1,4.337-5.145-13.756l5.88-3.26C534.1,704.31,546.829,700.014,553.551,696.64Z" transform="translate(-340.924 -458.431)" opacity="0.2"/><path d="M372.14,417.892s12.5-19.111,21.927-13.11-1.713,28.421-1.713,28.421S373.853,432.836,372.14,417.892Z" transform="translate(-250.438 -273.101)" fill="#007bff"/><path d="M372.14,417.892s12.5-19.111,21.927-13.11-1.713,28.421-1.713,28.421S373.853,432.836,372.14,417.892Z" transform="translate(-250.438 -273.101)" opacity="0.2"/><path d="M406.218,428.12s-16.417,7.964-11.393,12.621S406.218,428.12,406.218,428.12Z" transform="translate(-264.181 -288.599)" opacity="0.1"/><path d="M472.642,363.954a68.219,68.219,0,0,0-12.4,2.205l-.114.033c-5.748,1.6-12.275,4.289-16.763,8.777,0,0-10.412-4.41-13.231-3.675,0,0,8.453-10.272,31.184-10.533h.055A35.194,35.194,0,0,1,472.642,363.954Z" transform="translate(-287.115 -245.996)" fill="none"/><ellipse cx="22.93" cy="18.99" rx="22.93" ry="18.99" transform="translate(71.58 185.227) rotate(-13)" opacity="0.1"/><ellipse cx="22.93" cy="18.99" rx="22.93" ry="18.99" transform="translate(71.58 184.492) rotate(-13)" fill="#007bff"/><ellipse cx="22.93" cy="18.99" rx="22.93" ry="18.99" transform="translate(71.58 184.492) rotate(-13)" opacity="0.2"/><path d="M281.8,586.78s.246,7.108,2.33,5.028S284.251,586.773,281.8,586.78Z" transform="translate(-193.3 -388.948)" opacity="0.1"/><path d="M314.14,572.06s.243,7.108,2.326,5.028S316.588,572.038,314.14,572.06Z" transform="translate(-213.754 -379.637)" opacity="0.1"/><path d="M368.86,679.419s5.123,5.024,11.371-1.959" transform="translate(-248.363 -446.301)" opacity="0.1"/><path d="M430.13,371.323c2.819-.735,13.231,3.675,13.231,3.675,4.487-4.487,11.026-7.178,16.763-8.776l1.2-5.432C438.568,361.051,430.13,371.323,430.13,371.323Z" transform="translate(-287.115 -246.015)" opacity="0.15"/><path d="M513.182,360.79l-1.132,5.4a68.218,68.218,0,0,1,12.4-2.205A34.864,34.864,0,0,0,513.182,360.79Z" transform="translate(-338.927 -246.015)" opacity="0.3"/><path d="M512.951,360.79l-1.191,5.432.114-.033,1.132-5.4Z" transform="translate(-338.744 -246.015)" opacity="0.15"/><g transform="translate(57.464 137.655)" opacity="0.1"><path d="M373.361,750.06s.195-.529.434-1.3c.6-1.966,1.47-5.513.059-6.046,0,0-.654.033-1.838.029a18.211,18.211,0,0,1-.8,3.811c-.239.775-.434,1.3-.434,1.3-3.675,6.373-1.47,9.8,1.228,11.026l.143.051C371.071,757.077,370.983,754.184,373.361,750.06Z" transform="translate(-305.819 -625.224)" fill="#fff"/><path d="M200.7,492.75c-7.6-50.718,44.25-71.329,58.458-69.356l-4.19-.213c-14.208-1.959-64.438,16.66-56.841,67.378,2.389,15.947,9.673,26.587,18.534,33.684C208.985,517.187,202.858,507.124,200.7,492.75Z" transform="translate(-197.355 -423.043)" fill="#fff"/><path d="M518.1,713.412v-.033c0-.011-.176.114-.5.309h-.022c-.5.3-1.323.8-2.352,1.371-.368,8.361,1.8,10.173,3.5,10.331C517.864,723.438,517.412,719.855,518.1,713.412Z" transform="translate(-398.376 -606.673)" fill="#fff"/><path d="M569.689,733.743s-.441-.467-2.389.11c.507,3.646,1.911,4.043,2.911,3.826A15.432,15.432,0,0,1,569.689,733.743Z" transform="translate(-431.336 -619.44)" fill="#fff"/></g><path d="M375.47,727.6s31.853-1.959,35.036-5.145" transform="translate(-252.544 -474.756)" opacity="0.1"/><ellipse cx="13.804" cy="14.653" rx="13.804" ry="14.653" transform="translate(185.6 229.612)" fill="#fbd56f"/><ellipse cx="13.804" cy="14.653" rx="13.804" ry="14.653" transform="translate(185.6 229.612)" opacity="0.1"/><ellipse cx="13.804" cy="14.326" rx="13.804" ry="14.326" transform="translate(187.982 230.266)" fill="#fbd56f"/><path d="M601.933,747.394l-1.437-.8a17.342,17.342,0,0,0-.452,4.8,1,1,0,0,0,.735.86c3.308.82,19.045,4.315,29.872-.61a.985.985,0,0,0,.573-.8,14.764,14.764,0,0,0-.522-4.252C630.309,745.534,601.933,747.394,601.933,747.394Z" transform="translate(-394.553 -489.82)" fill="#fbd56f"/><path d="M601.933,747.394l-1.437-.8a17.342,17.342,0,0,0-.452,4.8,1,1,0,0,0,.735.86c3.308.82,19.045,4.315,29.872-.61a.985.985,0,0,0,.573-.8,14.764,14.764,0,0,0-.522-4.252C630.309,745.534,601.933,747.394,601.933,747.394Z" transform="translate(-394.553 -489.82)" opacity="0.1"/><ellipse cx="15.109" cy="3.407" rx="15.109" ry="3.407" transform="translate(205.942 253.369)" fill="#fbd56f"/><path d="M617.679,733.724l-1.433-.8a17.342,17.342,0,0,0-.452,4.8.989.989,0,0,0,.735.856c3.308.823,19.045,4.318,29.872-.606a.992.992,0,0,0,.573-.8,14.88,14.88,0,0,0-.526-4.252C646.041,731.864,617.679,733.724,617.679,733.724Z" transform="translate(-404.515 -481.174)" fill="#fbd56f"/><path d="M617.679,733.724l-1.433-.8a17.342,17.342,0,0,0-.452,4.8.989.989,0,0,0,.735.856c3.308.823,19.045,4.318,29.872-.606a.992.992,0,0,0,.573-.8,14.88,14.88,0,0,0-.526-4.252C646.041,731.864,617.679,733.724,617.679,733.724Z" transform="translate(-404.515 -481.174)" opacity="0.1"/><ellipse cx="15.109" cy="3.407" rx="15.109" ry="3.407" transform="translate(211.713 248.345)" fill="#fbd56f"/><path d="M631.523,715.753l-1.437-.8a17.341,17.341,0,0,0-.452,4.8,1,1,0,0,0,.735.86c3.308.82,19.049,4.315,29.872-.61a1,1,0,0,0,.577-.8,14.877,14.877,0,0,0-.526-4.252C659.9,713.894,631.523,715.753,631.523,715.753Z" transform="translate(-413.268 -469.809)" fill="#fbd56f"/><path d="M631.523,715.753l-1.437-.8a17.341,17.341,0,0,0-.452,4.8,1,1,0,0,0,.735.86c3.308.82,19.049,4.315,29.872-.61a1,1,0,0,0,.577-.8,14.877,14.877,0,0,0-.526-4.252C659.9,713.894,631.523,715.753,631.523,715.753Z" transform="translate(-413.268 -469.809)" opacity="0.1"/><ellipse cx="15.109" cy="3.407" rx="15.109" ry="3.407" transform="translate(216.818 241.741)" fill="#fbd56f"/><path d="M616.145,697.055l-1.437-.8a17.514,17.514,0,0,0-.452,4.8,1,1,0,0,0,.735.86c3.308.82,19.045,4.315,29.869-.606a.992.992,0,0,0,.577-.8,14.924,14.924,0,0,0-.526-4.256C644.521,695.188,616.145,697.055,616.145,697.055Z" transform="translate(-403.543 -457.979)" fill="#fbd56f"/><path d="M616.145,697.055l-1.437-.8a17.514,17.514,0,0,0-.452,4.8,1,1,0,0,0,.735.86c3.308.82,19.045,4.315,29.869-.606a.992.992,0,0,0,.577-.8,14.924,14.924,0,0,0-.526-4.256C644.521,695.188,616.145,697.055,616.145,697.055Z" transform="translate(-403.543 -457.979)" opacity="0.1"/><ellipse cx="15.109" cy="3.407" rx="15.109" ry="3.407" transform="translate(211.165 234.864)" fill="#fbd56f"/><path d="M650.739,682.053l-1.433-.8a17.361,17.361,0,0,0-.452,4.8.992.992,0,0,0,.735.86c3.308.82,19.045,4.315,29.869-.606a1,1,0,0,0,.577-.8,14.9,14.9,0,0,0-.526-4.256C679.115,680.182,650.739,682.053,650.739,682.053Z" transform="translate(-425.424 -448.49)" fill="#fbd56f"/><path d="M650.739,682.053l-1.433-.8a17.361,17.361,0,0,0-.452,4.8.992.992,0,0,0,.735.86c3.308.82,19.045,4.315,29.869-.606a1,1,0,0,0,.577-.8,14.9,14.9,0,0,0-.526-4.256C679.115,680.182,650.739,682.053,650.739,682.053Z" transform="translate(-425.424 -448.49)" opacity="0.1"/><ellipse cx="15.109" cy="3.407" rx="15.109" ry="3.407" transform="translate(223.878 229.348)" fill="#fbd56f"/><path d="M627.365,671.948l-1.437-.8a17.516,17.516,0,0,0-.452,4.8,1,1,0,0,0,.735.86c3.308.82,19.045,4.315,29.869-.606a.992.992,0,0,0,.577-.8,14.906,14.906,0,0,0-.526-4.256C655.741,670.085,627.365,671.948,627.365,671.948Z" transform="translate(-410.639 -442.101)" fill="#fbd56f"/><path d="M627.365,671.948l-1.437-.8a17.516,17.516,0,0,0-.452,4.8,1,1,0,0,0,.735.86c3.308.82,19.045,4.315,29.869-.606a.992.992,0,0,0,.577-.8,14.906,14.906,0,0,0-.526-4.256C655.741,670.085,627.365,671.948,627.365,671.948Z" transform="translate(-410.639 -442.101)" opacity="0.1"/><ellipse cx="15.109" cy="3.407" rx="15.109" ry="3.407" transform="translate(215.289 225.639)" fill="#fbd56f"/><path d="M642.969,652.468l-1.433-.8a17.362,17.362,0,0,0-.452,4.8.992.992,0,0,0,.735.86c3.308.819,19.045,4.315,29.872-.607a.988.988,0,0,0,.573-.8,14.92,14.92,0,0,0-.526-4.256C671.349,650.6,642.969,652.468,642.969,652.468Z" transform="translate(-420.51 -429.78)" fill="#fbd56f"/><path d="M642.969,652.468l-1.433-.8a17.362,17.362,0,0,0-.452,4.8.992.992,0,0,0,.735.86c3.308.819,19.045,4.315,29.872-.607a.988.988,0,0,0,.573-.8,14.92,14.92,0,0,0-.526-4.256C671.349,650.6,642.969,652.468,642.969,652.468Z" transform="translate(-420.51 -429.78)" opacity="0.1"/><ellipse cx="15.109" cy="3.407" rx="15.109" ry="3.407" transform="translate(221.026 218.48)" fill="#fbd56f"/><path d="M650.675,629.348l-1.437-.8a17.516,17.516,0,0,0-.452,4.8,1,1,0,0,0,.735.86c3.308.82,19.045,4.315,29.869-.606a.993.993,0,0,0,.577-.8,14.927,14.927,0,0,0-.526-4.256C679.048,627.485,650.675,629.348,650.675,629.348Z" transform="translate(-425.382 -415.157)" fill="#fbd56f"/><path d="M650.675,629.348l-1.437-.8a17.516,17.516,0,0,0-.452,4.8,1,1,0,0,0,.735.86c3.308.82,19.045,4.315,29.869-.606a.993.993,0,0,0,.577-.8,14.927,14.927,0,0,0-.526-4.256C679.048,627.485,650.675,629.348,650.675,629.348Z" transform="translate(-425.382 -415.157)" opacity="0.1"/><ellipse cx="15.109" cy="3.407" rx="15.109" ry="3.407" transform="translate(223.852 209.983)" fill="#fbd56f"/><path d="M720.063,752.758l-1.437-.8a17.361,17.361,0,0,0-.452,4.8,1,1,0,0,0,.735.86c3.308.82,19.045,4.315,29.872-.606a1,1,0,0,0,.573-.8,14.76,14.76,0,0,0-.522-4.252C748.439,750.895,720.063,752.758,720.063,752.758Z" transform="translate(-469.268 -493.211)" fill="#fbd56f"/><path d="M720.063,752.758l-1.437-.8a17.361,17.361,0,0,0-.452,4.8,1,1,0,0,0,.735.86c3.308.82,19.045,4.315,29.872-.606a1,1,0,0,0,.573-.8,14.76,14.76,0,0,0-.522-4.252C748.439,750.895,720.063,752.758,720.063,752.758Z" transform="translate(-469.268 -493.211)" opacity="0.1"/><ellipse cx="15.109" cy="3.407" rx="15.109" ry="3.407" transform="translate(249.358 255.339)" fill="#fbd56f"/><path d="M733.945,734.788l-1.437-.8a17.517,17.517,0,0,0-.452,4.8,1,1,0,0,0,.735.86c3.308.82,19.045,4.315,29.869-.606a.993.993,0,0,0,.577-.8,14.906,14.906,0,0,0-.526-4.256C762.321,732.925,733.945,734.788,733.945,734.788Z" transform="translate(-478.048 -481.845)" fill="#fbd56f"/><path d="M733.945,734.788l-1.437-.8a17.517,17.517,0,0,0-.452,4.8,1,1,0,0,0,.735.86c3.308.82,19.045,4.315,29.869-.606a.993.993,0,0,0,.577-.8,14.906,14.906,0,0,0-.526-4.256C762.321,732.925,733.945,734.788,733.945,734.788Z" transform="translate(-478.048 -481.845)" opacity="0.1"/><ellipse cx="15.109" cy="3.407" rx="15.109" ry="3.407" transform="translate(254.459 248.735)" fill="#fbd56f"/><path d="M718.569,716.079l-1.433-.8a17.341,17.341,0,0,0-.452,4.8.989.989,0,0,0,.735.856c3.308.823,19.045,4.318,29.872-.606a.985.985,0,0,0,.573-.8,14.876,14.876,0,0,0-.526-4.252C746.949,714.241,718.569,716.079,718.569,716.079Z" transform="translate(-468.325 -470.02)" fill="#fbd56f"/><path d="M718.569,716.079l-1.433-.8a17.341,17.341,0,0,0-.452,4.8.989.989,0,0,0,.735.856c3.308.823,19.045,4.318,29.872-.606a.985.985,0,0,0,.573-.8,14.876,14.876,0,0,0-.526-4.252C746.949,714.241,718.569,716.079,718.569,716.079Z" transform="translate(-468.325 -470.02)" opacity="0.1"/><ellipse cx="15.109" cy="3.407" rx="15.109" ry="3.407" transform="translate(248.811 241.862)" fill="#fbd56f"/><path d="M753.163,701.064l-1.437-.8a17.259,17.259,0,0,0-.452,4.778.992.992,0,0,0,.735.86c3.308.823,19.045,4.315,29.872-.606a.985.985,0,0,0,.573-.8,14.894,14.894,0,0,0-.522-4.252C781.539,699.226,753.163,701.064,753.163,701.064Z" transform="translate(-490.202 -460.518)" fill="#fbd56f"/><path d="M753.163,701.064l-1.437-.8a17.259,17.259,0,0,0-.452,4.778.992.992,0,0,0,.735.86c3.308.823,19.045,4.315,29.872-.606a.985.985,0,0,0,.573-.8,14.894,14.894,0,0,0-.522-4.252C781.539,699.226,753.163,701.064,753.163,701.064Z" transform="translate(-490.202 -460.518)" opacity="0.1"/><ellipse cx="15.109" cy="3.407" rx="15.109" ry="3.407" transform="translate(261.523 236.345)" fill="#fbd56f"/><path d="M729.789,690.984l-1.433-.8a17.34,17.34,0,0,0-.452,4.8.993.993,0,0,0,.735.856c3.308.823,19.045,4.315,29.872-.606a.985.985,0,0,0,.573-.8,14.877,14.877,0,0,0-.526-4.252C758.169,689.124,729.789,690.984,729.789,690.984Z" transform="translate(-475.421 -454.142)" fill="#fbd56f"/><path d="M729.789,690.984l-1.433-.8a17.34,17.34,0,0,0-.452,4.8.993.993,0,0,0,.735.856c3.308.823,19.045,4.315,29.872-.606a.985.985,0,0,0,.573-.8,14.877,14.877,0,0,0-.526-4.252C758.169,689.124,729.789,690.984,729.789,690.984Z" transform="translate(-475.421 -454.142)" opacity="0.1"/><ellipse cx="15.109" cy="3.407" rx="15.109" ry="3.407" transform="translate(252.934 232.637)" fill="#fbd56f"/><path d="M745.393,671.5l-1.437-.8a17.34,17.34,0,0,0-.452,4.8,1,1,0,0,0,.735.86c3.308.82,19.045,4.315,29.869-.61a1,1,0,0,0,.577-.8,14.874,14.874,0,0,0-.526-4.252C773.769,669.644,745.393,671.5,745.393,671.5Z" transform="translate(-485.288 -441.822)" fill="#fbd56f"/><path d="M745.393,671.5l-1.437-.8a17.34,17.34,0,0,0-.452,4.8,1,1,0,0,0,.735.86c3.308.82,19.045,4.315,29.869-.61a1,1,0,0,0,.577-.8,14.874,14.874,0,0,0-.526-4.252C773.769,669.644,745.393,671.5,745.393,671.5Z" transform="translate(-485.288 -441.822)" opacity="0.1"/><ellipse cx="15.109" cy="3.407" rx="15.109" ry="3.407" transform="translate(258.668 225.478)" fill="#fbd56f"/><path d="M753.089,648.384l-1.433-.8a17.34,17.34,0,0,0-.452,4.8,1,1,0,0,0,.735.86c3.308.82,19.045,4.315,29.872-.61a.985.985,0,0,0,.573-.8,14.874,14.874,0,0,0-.526-4.252C781.469,646.524,753.089,648.384,753.089,648.384Z" transform="translate(-490.158 -427.199)" fill="#fbd56f"/><path d="M753.089,648.384l-1.433-.8a17.34,17.34,0,0,0-.452,4.8,1,1,0,0,0,.735.86c3.308.82,19.045,4.315,29.872-.61a.985.985,0,0,0,.573-.8,14.874,14.874,0,0,0-.526-4.252C781.469,646.524,753.089,648.384,753.089,648.384Z" transform="translate(-490.158 -427.199)" opacity="0.1"/><ellipse cx="15.109" cy="3.407" rx="15.109" ry="3.407" transform="translate(261.497 216.98)" fill="#fbd56f"/><path d="M445.5,337.208a14.079,14.079,0,0,1,13.8-14.333,13.532,13.532,0,0,1,2.231.187,13.054,13.054,0,0,0-4.616-.842c-7.622,0-13.8,6.56-13.8,14.653a14.7,14.7,0,0,0,8.453,13.51c.239-.21.537-.459.889-.735A14.422,14.422,0,0,1,445.5,337.208Z" transform="translate(-295.331 -221.62)" fill="#fbd56f"/><path d="M445.5,337.208a14.079,14.079,0,0,1,13.8-14.333,13.532,13.532,0,0,1,2.231.187,13.054,13.054,0,0,0-4.616-.842c-7.622,0-13.8,6.56-13.8,14.653a14.7,14.7,0,0,0,8.453,13.51c.239-.21.537-.459.889-.735A14.422,14.422,0,0,1,445.5,337.208Z" transform="translate(-295.331 -221.62)" opacity="0.1"/><path d="M502.418,338.363a15.505,15.505,0,0,1-.735,4.708c.838-.2,1.713-.368,2.613-.559a14.872,14.872,0,0,0,.5-3.837,14.18,14.18,0,0,0-11.57-14.135A14.651,14.651,0,0,1,502.418,338.363Z" transform="translate(-327.024 -223.087)" fill="#fbd56f"/><path d="M449.6,338.352a14.422,14.422,0,0,0,6.965,12.444,44.984,44.984,0,0,1,17.527-8.06,15.5,15.5,0,0,0,.735-4.708,14.625,14.625,0,0,0-9.188-13.812,13.536,13.536,0,0,0-2.231-.187A14.084,14.084,0,0,0,449.6,338.352Z" transform="translate(-299.429 -222.765)" fill="#fbd56f"/><path d="M836.947,503.927c-2.1-.073-2.179-.889-4.881-2.3-1.529-.794-3.844-3.1-5.572-4.958l-.4-.437h.735s-.676-5.928-.074-7.35.151-9.784.151-9.784.368-6.376-.3-7.858.224-10.967.224-10.967.6-5.634.735-17.123-6.615-11.856-6.615-11.856-.9-.07-2.268-.2l-.412-.04c.886-1.838,1.4-3.242,1.4-3.242s-1.128-10.746-1.43-12.6-2.1-9.5-2.1-9.5-1.275-3.26-2.029-5.557a18.843,18.843,0,0,0-3-4.965s-4.043-8-5.182-9.188c-.522-.548-1.257-1.242-1.893-1.838l-.331-.3a13.235,13.235,0,0,0,.272-2.536s-4.208-4.153-4.51-5.189-4.278-4.892-4.278-4.892-2.257-4.149-4.807-4.223a20.821,20.821,0,0,0-3.62.107c.526-1.941,1.147-3.973,1.7-5.719.063-.195.125-.368.184-.57a12.885,12.885,0,0,0,4.616-5.583c.051-.121.1-.243.147-.368h.081a2.243,2.243,0,0,0,.316-.029c.842-.143,1.555-1.1,1.165-1.838a.279.279,0,0,0,.246.136c.279,0,.621-.415.687-.772a1.633,1.633,0,0,1,.026-.187c.007-.062.026-.154.037-.232a1.477,1.477,0,0,0,0-.221v-.878a1.508,1.508,0,0,0-.022-.3v-.121h0a6.624,6.624,0,0,0-.242-1.194c-.412-1.378-1.283-2.745-.948-4.142v-.044h0c.279-1.1,1.22-1.874,1.794-2.845.055-.092.1-.187.151-.283,0-.018.018-.037.026-.051.037-.074.066-.147.1-.221l.059-.143c.026-.062.044-.129.066-.195s.04-.118.055-.18.029-.118.044-.176.033-.14.048-.213,0-.1.026-.154a.916.916,0,0,0,.029-.243.763.763,0,0,0,0-.132v-.772a1.178,1.178,0,0,0-.029-.32V339.1h0a5.326,5.326,0,0,0-1.077-2.554,6.582,6.582,0,0,0-5.406-2.341,9.05,9.05,0,0,1-1.7.033,5.593,5.593,0,0,1-2.492-1.316l-6.292-4.848a7.822,7.822,0,0,0-2.378-1.411,2.654,2.654,0,0,0-2.613.47c-1.18,1.161-.43,3.161-.9,4.737a4.606,4.606,0,0,1-3.095,2.753c-1.363.459-2.826.562-4.23.9a2.312,2.312,0,0,0-1.128.518,2.205,2.205,0,0,0-.492,1.577,8.474,8.474,0,0,0,.978,4.01c.265.5.584,1.011.867,1.525l.07.129.092.176c.048.1.1.195.14.29l.055.125.085.21a.421.421,0,0,0,.048.129c.015.04.051.165.077.246a2.727,2.727,0,0,1,.04,1.47,5.448,5.448,0,0,1-1.389,2.032,4,4,0,0,0-.926,1.72h0a1.293,1.293,0,0,0,0,.456v.055a1.02,1.02,0,0,0,.029.1.583.583,0,0,0,.029.07.738.738,0,0,0,.037.077.689.689,0,0,0,.1.11l.055.04a.614.614,0,0,0,.1.059l.063.029.154.04h.044a1.711,1.711,0,0,0,.243,0h.073a1.845,1.845,0,0,0,.228-.029h.085a3.2,3.2,0,0,0,.367-.092,7.774,7.774,0,0,0,1.228-.485v.371a12.476,12.476,0,0,0,.812,4.252,12.863,12.863,0,0,0,3.914,5.414c-.022.125-.044.254-.07.386-.368,1.775-1.121,3.558-1.588,3.422a6.274,6.274,0,0,0-1.393-.154h-.408a5.662,5.662,0,0,0-1.279,0,1.346,1.346,0,0,1-.559-.077,7.6,7.6,0,0,0-3.752-.209c-2.595.533-6.546,1.507-7.63,2.672-1.654,1.779-4.043,3.484-6.759,10.893,0,0-1.352,4.521-2.4,5.116a7.075,7.075,0,0,1,.713-.323,1.919,1.919,0,0,1-.562.617,8.329,8.329,0,0,1,1.18-.493c-.82,4.829.4,18.641.4,18.641s-.978,2.382.3,3.793a7.121,7.121,0,0,1,1.386,3.065l-.187.287h0c-.676,1.047-1.58,2.415-2.172,3.168-1.051,1.334-.753,5.561-.753,5.561a5.887,5.887,0,0,1-.974,2.742c-.75.742-.6,3.484-.6,3.484l-1.922,7.236s-1.8,1.628-1.8,2.371-1.426,2.815-1.426,2.815-2.179,3.558,0,3.039a6.81,6.81,0,0,0,2.205-1.1v.452c-.062,3.874.367,9.328,3.219,9.328,4.41,0,15.848,5.259,15.848,5.259a7.652,7.652,0,0,0,5.48,1.187s-5.583,5.546-5.421,7.847-3.153,6.075-3.153,6.075l-10.217,19.938a15.213,15.213,0,0,0,.735,4.087l-.147.125c-3.925,3.587-4.267,10.684-4.267,10.684l-.9,3.631,13.668,6.005s17.726.368,20.806-.445,2.4-4.227-1.654-4.892-5.031-2.448-6.384-3.26c-.911-.551-4.149-4.105-6.16-6.358-.029-.037-.059-.066-.088-.1l.467-2.573c.9-.445,2.253-4.892,2.253-4.892s0-1.779.9-2.3,2.778-5.855,2.778-5.855,4.043-6.744,3.833-7.634,2.94-5.41,2.94-5.41,5.333-5.189,5.1-6.116,4.282-5.671,4.282-5.671a15.006,15.006,0,0,0,3.988-4.59l1.3-.213c5.9-.967,15.7-2.712,16.792-3.2,1.5-.665,1.2,2.3.6,4.818s-1.051,14.6-.368,16.171a9.56,9.56,0,0,1,.368,4.08l-.9,13.562.6,2.892s-2.029,1.628-1.2,2.591.077,5.116.077,5.116c.07-.026.154-.051.246-.077-.07.162-.14.331-.2.5-1.165,3.308-.5,8.762-.5,8.762v4.3s20.806.368,25.385.368,10.893-2.224,11.268-4S839.05,504,836.947,503.927Zm-59.171-77.154-1.36.114a10.727,10.727,0,0,1,1.356-.114Zm8.31-56.889c.191-.86.423-1.779.68-2.727Zm2.573,58.966a5.513,5.513,0,0,1-4.043,0h0a42.992,42.992,0,0,1,.676-7.351c.6-2.165,1.426-6.079,1.426-6.079a79.623,79.623,0,0,1,1.352-7.858c.676-2.448,3.308-16.083,4.657-16.972a1.425,1.425,0,0,1,2.1.669,5.054,5.054,0,0,0,.54-.04c.066.14.136.294.217.452a111.76,111.76,0,0,0,6.3,9.89,10.818,10.818,0,0,1,3.455,3.411c1.279,2.146,1.654,7.189,1.654,7.189s2.856,11.191,4.2,12.746c.676.779.368,1.242-.092,1.511a6.652,6.652,0,0,0-2.371,2.205c-.191.305-.4.639-.6,1-.518-.121-.978-.246-1.363-.368-3.708-1.246-16.094-1.294-18.119-.386Z" transform="translate(-482.951 -224.339)" fill="url(#a)"/><path d="M922.828,795.23v4.263s20.357.367,24.841.367,10.658-2.205,11.026-3.969-5.145-3.234-7.2-3.308-2.132-.882-4.778-2.279c-1.492-.786-3.76-3.076-5.45-4.917-1.3-1.422-2.268-2.573-2.268-2.573s-10.949-.221-14.109,1.544a3.769,3.769,0,0,0-1.573,2.205C922.174,789.835,922.828,795.23,922.828,795.23Z" transform="translate(-598.616 -512.929)" fill="#434175"/><path d="M924.47,786.572c2.3-.8,15.737-1.1,17.95-1.154-1.3-1.422-2.268-2.573-2.268-2.573s-10.949-.221-14.109,1.544A3.722,3.722,0,0,0,924.47,786.572Z" transform="translate(-599.773 -512.948)" opacity="0.1"/><path d="M763.77,602.978l1.187.735.445.268,1.727,1.044c9.24,5.564,34.433,20.655,35.815,20.534.367-.03,1.448-.195,2.94-.437l1.275-.21c5.77-.959,15.359-2.69,16.432-3.175,1.47-.661,1.176,2.279.588,4.778s-1.029,14.48-.368,16.024a9.776,9.776,0,0,1,.368,4.043l-.882,13.451.588,2.867s-1.985,1.617-1.176,2.573.074,5.072.074,5.072c2.352-.882,18.3-1.176,18.3-1.176s-.662-5.88-.074-7.277.147-9.7.147-9.7.368-6.321-.294-7.792.221-10.875.221-10.875.588-5.586.735-16.976-6.468-11.761-6.468-11.761-.882-.07-2.205-.2a98.555,98.555,0,0,1-9.9-1.367,16,16,0,0,1-1.768-.467c-3.6-1.228-15.73-1.275-17.711-.393a5.337,5.337,0,0,1-3.962,0h0l-1.544-2.5-14.741,1.257-1.562.132-14.514,1.239-1,.084Z" transform="translate(-498.134 -397.347)" fill="#565387"/><path d="M920.773,620.037c4.282,2.088,8.369-5.314,10.291-9.49a98.53,98.53,0,0,1-9.9-1.367C919.226,612.4,916.668,618.034,920.773,620.037Z" transform="translate(-596.046 -403.115)" opacity="0.1"/><path d="M889.549,490.254a4.611,4.611,0,0,0,.518,1.441,111.41,111.41,0,0,0,6.171,9.806,10.658,10.658,0,0,1,3.381,3.381c1.25,2.132,1.617,7.13,1.617,7.13s2.793,11.1,4.116,12.639c.662.772.367,1.231-.092,1.5a6.564,6.564,0,0,0-2.319,2.168c-1.93,3.1-5.006,9.247-.676,11.357,5.88,2.867,11.393-12.158,11.393-12.158s-1.1-10.658-1.4-12.5-2.054-9.409-2.054-9.409-1.25-3.234-1.985-5.513a18.645,18.645,0,0,0-2.94-4.925s-3.969-7.935-5.072-9.111c-.511-.548-1.228-1.235-1.838-1.816l-1.308-1.2S889.476,488.493,889.549,490.254Z" transform="translate(-577.686 -323.341)" fill="#ee8e9e"/><path d="M754,786.275l13.378,5.954s17.344.367,20.357-.441,2.352-4.19-1.617-4.851-4.925-2.426-6.248-3.234c-.893-.544-4.061-4.069-6.027-6.3l-1.617-1.838s-2.573-6.836-9.7-5.292a7.3,7.3,0,0,0-3.469,1.838c-3.841,3.554-4.175,10.592-4.175,10.592Z" transform="translate(-491.955 -504.857)" fill="#434175"/><path d="M768.21,603.434l1.727,1.044c9.24,5.564,34.433,20.655,35.815,20.534.368-.029,1.448-.195,2.94-.437l1.275-.209.048-.084a16.659,16.659,0,0,0,1.683-4.12c1.547-5.877-6.079-10.375-6.079-10.375L804,608.528c-1.838-3.095-15.069-6.02-15.069-6.02l-1.705-1.147-.908-.61-.243-.162L784.01,599.2l-10.361.735-3.08,1.977-.323.209-1.143.735Z" transform="translate(-500.942 -396.803)" opacity="0.1"/><path d="M767.73,772.081c2.812,9.728,14.565,6.553,14.565,6.553l.22-1.235-1.617-1.838s-2.573-6.836-9.7-5.292A7.3,7.3,0,0,0,767.73,772.081Z" transform="translate(-500.639 -504.857)" opacity="0.1"/><path d="M753.957,620.372c4.337,0,15.506,5.219,15.506,5.219a7.41,7.41,0,0,0,5.366,1.176s-5.439,5.513-5.292,7.792-3.083,6.027-3.083,6.027l-10,19.769c.735,14.036,15.138,10.144,15.138,10.144l.588-3.308c.882-.441,2.205-4.851,2.205-4.851s0-1.764.882-2.279,2.72-5.807,2.72-5.807,3.969-6.689,3.749-7.571,2.867-5.362,2.867-5.362,5.219-5.145,5-6.064,4.19-5.623,4.19-5.623a14.867,14.867,0,0,0,3.9-4.554,16.654,16.654,0,0,0,1.7-4.131c1.246-4.734-3.469-8.563-5.355-9.872-.456-.32-.735-.489-.735-.489l-1.617-1.257c-.834-1.408-4.043-2.782-7.262-3.859-2.33-.775-4.682-1.4-6.185-1.775-1.022-.235-1.632-.39-1.632-.39l-1.705-1.147-.6-.4-.548-.368L771.668,600l-4.609.327-5.752.408-3.076,1.992-1.47.948-5.744,3.675s-.151,1.415-.2,3.308v.448C750.748,614.966,751.16,620.372,753.957,620.372Z" transform="translate(-489.938 -397.309)" fill="#565387"/><path d="M819.56,419.176l1.544,5.513s2.72,9.482,3.014,10.144,7.424,7.35,7.718,7.5,4.175,2.348,4.175,2.348.309-12.128,0-15.653a10.029,10.029,0,0,1,.191-2.312,86.3,86.3,0,0,1,2.639-9.942c.823-2.613,1.5-4.576,1.5-4.576s-17.2-.735-16.608.956a6.027,6.027,0,0,1-.066,2.778c-.367,1.76-1.1,3.532-1.551,3.392a6.251,6.251,0,0,0-1.363-.151C820.137,419.154,819.56,419.176,819.56,419.176Z" transform="translate(-533.42 -278.427)" fill="#ee8e9e"/><path d="M830.78,415.93a12.72,12.72,0,0,0,15.171.842c.823-2.613,1.5-4.576,1.5-4.576s-17.2-.735-16.608.956A6.028,6.028,0,0,1,830.78,415.93Z" transform="translate(-540.516 -278.427)" opacity="0.1"/><path d="M843.812,373a12.665,12.665,0,0,1-.636,3.969,10.369,10.369,0,0,1-.368.974,12.716,12.716,0,0,1-23.625-.489,12.533,12.533,0,0,1-.794-4.215v-.235a12.715,12.715,0,1,1,25.431,0Z" transform="translate(-532.68 -245.698)" fill="#ee8e9e"/><path d="M819.56,431.443l1.544,5.513s2.72,9.482,3.014,10.144,7.424,7.35,7.718,7.5,4.175,2.348,4.175,2.348.309-12.128,0-15.653a10.029,10.029,0,0,1,.191-2.312l-1,4.076.073,8.159.588.441-1.323,1.985v-1.47s-4.7-4.557-5.439-6.468a32.114,32.114,0,0,0-3.381-5.373s-3.014-5.065-3.087-5.947c-.055-.687-1.323-2.279-1.878-2.94C820.137,431.421,819.56,431.443,819.56,431.443Z" transform="translate(-533.42 -290.695)" opacity="0.1"/><path d="M889.549,490.26a4.611,4.611,0,0,0,.518,1.441,9.071,9.071,0,0,0,8.288-7.442l-1.308-1.2S889.476,488.5,889.549,490.26Z" transform="translate(-577.686 -323.347)" opacity="0.1"/><path d="M750.8,611.125c1.47-1.051,2.9-2.481,3.738-2.878a16.234,16.234,0,0,0,3.161-2.5s.485-.331,1.228-.764a14.844,14.844,0,0,1,5.314-2.1c1.533-.129,6.615-.456,10.658-.706l5.234-.323s4.778-1.691,6.836-.588a21.6,21.6,0,0,0,4.631,1.691v-.437h0l-1.544-2.5-16.3,1.389L771.661,600l-10.36.735-3.076,1.992-2.654.228,1.187.735-5.744,3.675S750.833,609.008,750.8,611.125Z" transform="translate(-489.931 -397.309)" opacity="0.1"/><path d="M743.35,504.4a6.656,6.656,0,0,0,2.154-1.1h0c1.47-1.047,2.885-2.477,3.727-2.87a16.232,16.232,0,0,0,3.161-2.5s3.9-2.646,6.542-2.867c.735-.059,2.227-.165,4.043-.283s4.043-.261,6-.368l3.117-.195,2.716-.169s4.778-1.691,6.836-.588a21.6,21.6,0,0,0,4.631,1.691,43.149,43.149,0,0,1,.661-7.277c.588-2.132,1.4-6.024,1.4-6.024s.661-5.366,1.323-7.792,3.231-15.951,4.554-16.833,2.058.662,2.058.662,8.821-.147,8.968-9.846c0,0-4.116-4.116-4.41-5.145s-4.19-4.851-4.19-4.851-2.205-4.116-4.7-4.19a19.991,19.991,0,0,0-3.539.11l-2.117,8.637.074,8.159.588.441-1.323,1.985v-1.47s-4.7-4.557-5.439-6.468a32.122,32.122,0,0,0-3.381-5.373s-3.014-5.064-3.087-5.947-2.132-3.245-2.132-3.245a5.407,5.407,0,0,0-1.25,0,1.3,1.3,0,0,1-.548-.077,7.322,7.322,0,0,0-3.675-.206c-2.54.526-6.406,1.492-7.464,2.646-1.617,1.764-3.969,3.455-6.615,10.805L766.276,449l-1.242,2.323-11.346,21.566s-.368.614-.886,1.415h0c-.661,1.04-1.547,2.4-2.128,3.142-1.029,1.323-.735,5.513-.735,5.513a5.886,5.886,0,0,1-.956,2.72c-.735.735-.588,3.455-.588,3.455l-1.911,7.13s-1.764,1.617-1.764,2.352a9.707,9.707,0,0,1-1.4,2.793S741.207,504.934,743.35,504.4Z" transform="translate(-484.612 -289.953)" fill="#434175"/><path d="M939.366,646.44s-4.627,1.54-5.88,3.745S939.366,646.44,939.366,646.44Z" transform="translate(-605.382 -426.681)" opacity="0.1"/><path d="M933.074,633.24c-.147.22-6.344,6.435-5.954,7.935S933.074,633.24,933.074,633.24Z" transform="translate(-601.438 -418.332)" opacity="0.1"/><path d="M837.8,645.24s-6.895,3.256-7.5,4.69S837.8,645.24,837.8,645.24Z" transform="translate(-540.196 -425.922)" opacity="0.1"/><path d="M837.259,656.63s-6.248,2.646-7.086,3.308S837.259,656.63,837.259,656.63Z" transform="translate(-540.093 -433.126)" opacity="0.1"/><path d="M833.946,671.289s-2.76,2.058-4.285.441S833.946,671.289,833.946,671.289Z" transform="translate(-539.647 -442.137)" opacity="0.1"/><path d="M849.281,526.05c-.147.221-9.335,16.759-11.761,18.009S849.281,526.05,849.281,526.05Z" transform="translate(-544.603 -350.537)" opacity="0.1"/><path d="M850.581,543.05c0,.368-8.968,19.549-10.438,19.769S850.581,543.05,850.581,543.05Z" transform="translate(-546.359 -361.289)" opacity="0.1"/><path d="M765.208,576.64s-4.329,9.251-6.027,9.776S765.208,576.64,765.208,576.64Z" transform="translate(-495.077 -382.534)" opacity="0.1"/><path d="M769.6,565.45s-1.492,3.231-2.4,3.231S769.6,565.45,769.6,565.45Z" transform="translate(-500.203 -375.457)" opacity="0.1"/><path d="M843.812,373a12.666,12.666,0,0,1-.636,3.969,10.379,10.379,0,0,1-.368.974,3.739,3.739,0,0,1-1.775-.783,4.409,4.409,0,0,1-1.334-1.426,17.846,17.846,0,0,1-.651-1.856,4.319,4.319,0,0,0-3.488-2.643,1.351,1.351,0,0,1-1.077,1.838,2.631,2.631,0,0,1-2.205-.981c-.573-.614-.981-1.36-1.547-1.974a2.638,2.638,0,0,0-2.205-.981,5.01,5.01,0,0,0-1.911,1.084,1.841,1.841,0,0,1-2.058.25c-.331-.246-.493-.665-.809-.934-.812-.68-2.076.022-2.676.9a7,7,0,0,1-2.683,2.8V373a12.715,12.715,0,1,1,25.431,0Z" transform="translate(-532.68 -245.692)" opacity="0.1"/><path d="M816.076,351.419c.6-.882,1.863-1.584,2.676-.9.316.265.478.684.809.934a1.84,1.84,0,0,0,2.058-.25,5.009,5.009,0,0,1,1.911-1.084,2.631,2.631,0,0,1,2.205.981c.573.614.978,1.36,1.547,1.974a2.629,2.629,0,0,0,2.205.978,1.348,1.348,0,0,0,1.077-1.838,4.311,4.311,0,0,1,3.484,2.643,18.8,18.8,0,0,0,.651,1.856,4.41,4.41,0,0,0,1.338,1.422,3.153,3.153,0,0,0,2.315.768c.823-.143,1.522-1.1,1.139-1.838.261.4.827-.158.912-.628a6.711,6.711,0,0,0-.169-3.1c-.4-1.367-1.257-2.72-.93-4.109.261-1.1,1.2-1.885,1.768-2.859a5.183,5.183,0,0,0-.485-5.63,6.4,6.4,0,0,0-5.292-2.319,8.975,8.975,0,0,1-1.661.029,5.509,5.509,0,0,1-2.44-1.3l-6.163-4.8a7.557,7.557,0,0,0-2.326-1.4,2.616,2.616,0,0,0-2.573.467c-1.154,1.154-.423,3.139-.886,4.7a4.523,4.523,0,0,1-3.025,2.727c-1.334.456-2.764.559-4.138.889a2.264,2.264,0,0,0-1.1.515,2.2,2.2,0,0,0-.481,1.566,8.493,8.493,0,0,0,.956,3.973c.713,1.371,1.838,2.779,1.444,4.274a5.467,5.467,0,0,1-1.36,2.014c-1.161,1.338-1.555,3.308.636,2.624C814.294,354.025,814.885,353.169,816.076,351.419Z" transform="translate(-527.683 -227.044)" fill="#434175"/><g transform="translate(282.817 114.184)" opacity="0.1"><path d="M840.6,385.733c-.088.47-.65,1.029-.915.628a1.426,1.426,0,0,1-1.139,1.838,3.143,3.143,0,0,1-2.315-.768A4.41,4.41,0,0,1,834.9,386a17.6,17.6,0,0,1-.651-1.856,4.326,4.326,0,0,0-3.488-2.643,1.348,1.348,0,0,1-1.077,1.838,2.641,2.641,0,0,1-2.205-.981c-.573-.614-.981-1.356-1.547-1.974a2.627,2.627,0,0,0-2.205-.981,5.057,5.057,0,0,0-1.911,1.084,1.842,1.842,0,0,1-2.058.254c-.331-.25-.489-.669-.8-.934-.816-.684-2.08.018-2.679.9-1.187,1.749-1.779,2.613-3.888,3.278-.691.217-1.125.169-1.36-.04-.459,1.062-.25,2,1.36,1.488,2.11-.665,2.7-1.525,3.888-3.275.6-.882,1.863-1.584,2.679-.9.316.265.474.684.8.934a1.84,1.84,0,0,0,2.058-.25,5.009,5.009,0,0,1,1.911-1.084,2.631,2.631,0,0,1,2.205.981c.573.614.978,1.36,1.547,1.974a2.629,2.629,0,0,0,2.205.978,1.346,1.346,0,0,0,1.077-1.838,4.311,4.311,0,0,1,3.488,2.642,17.89,17.89,0,0,0,.651,1.856,4.409,4.409,0,0,0,1.334,1.422,3.158,3.158,0,0,0,2.315.768c.823-.143,1.522-1.1,1.139-1.838.265.4.827-.158.915-.628a6.738,6.738,0,0,0,.066-1.922A4,4,0,0,1,840.6,385.733Z" transform="translate(-810.703 -371.962)"/><path d="M812.9,366.615a.075.075,0,0,1,.018-.059c.4-1.492-.735-2.9-1.444-4.271a8.513,8.513,0,0,1-.911-3.106,4.4,4.4,0,0,0-.044.581,8.537,8.537,0,0,0,.956,3.973A13.815,13.815,0,0,1,812.9,366.615Z" transform="translate(-810.52 -359.18)"/><path d="M890.5,366.4c-.57.974-1.507,1.76-1.768,2.859a3.189,3.189,0,0,0,0,1.408c.272-1.077,1.191-1.856,1.753-2.819a4.778,4.778,0,0,0,.566-3.1,4.446,4.446,0,0,1-.551,1.654Z" transform="translate(-859.939 -362.703)"/></g><path d="M770.76,510.545h0a11.65,11.65,0,0,1,.224,1.231s5.807,13.6,6.542,14.4c.224.25,1.077,1.47,2.15,3.047l1.231,1.816c2.205,3.308,4.7,7.045,4.7,7.045l5.454,4.763s11.831.945,15.59-2.892c-.456-.32-.735-.489-.735-.489l-1.617-1.257c-.834-1.408-4.043-2.782-7.262-3.859-2.977.022-5.414.265-5.414.265l-.772-2.04-.809-2.128-4.127-10.813s-2.654-13.668-3.536-14.333-.658-2.72-.658-2.72,1.613-5.807,1.025-6.615.956-6.759.956-6.759a6.014,6.014,0,0,0-.706-1.65l-11.345,21.566S771.267,509.744,770.76,510.545Z" transform="translate(-502.555 -326.193)" opacity="0.1"/><path d="M780.17,480.124s-1.544,5.95-.956,6.759-1.029,6.615-1.029,6.615-.217,2.058.662,2.72,3.536,14.333,3.536,14.333l5.693,15s17.818-1.764,15.984,3.822-16.539,4.41-16.539,4.41L782.081,529s-7.351-11.1-8.086-11.908-6.542-14.4-6.542-14.4a8.789,8.789,0,0,0-1.544-4.116c-1.25-1.4-.294-3.76-.294-3.76s-1.544-17.773.073-19.905S778.479,473.729,780.17,480.124Z" transform="translate(-498.881 -317.545)" fill="#ee8e9e"/><path d="M769.553,458.718l-4.631,2.793s-1.323,4.484-2.352,5.072c0,0,9.262-5.145,16.241,6.685a2.672,2.672,0,0,1,.735-2.275c.956-.735.735-3.9.735-3.9a12.744,12.744,0,0,0,.662-1.544C781.6,463.937,778.164,454.675,769.553,458.718Z" transform="translate(-497.375 -307.311)" opacity="0.1"/><path d="M769.153,457.918l-4.631,2.793s-1.323,4.484-2.352,5.072c0,0,9.262-5.145,16.241,6.685a2.672,2.672,0,0,1,.735-2.275c.956-.735.735-3.9.735-3.9a12.761,12.761,0,0,0,.661-1.544C781.219,463.136,777.749,453.875,769.153,457.918Z" transform="translate(-497.122 -306.805)" fill="#434175"/><ellipse cx="13.804" cy="14.653" rx="13.804" ry="14.653" transform="translate(216.957 250.517)" fill="#fbd56f"/><ellipse cx="13.804" cy="14.653" rx="13.804" ry="14.653" transform="translate(216.957 250.517)" opacity="0.1"/><ellipse cx="13.804" cy="14.326" rx="13.804" ry="14.326" transform="translate(219.339 251.171)" fill="#fbd56f"/><ellipse cx="17.049" cy="2.881" rx="17.049" ry="2.881" transform="translate(16.079 267.46)" fill="#007bff"/><path d="M123.227,757.717a4.906,4.906,0,0,0,1.628-2.455,2.169,2.169,0,0,0-1.136-2.5c-1.044-.4-2.161.323-3.006,1.055s-1.812,1.562-2.918,1.408a4.443,4.443,0,0,0,1.375-4.16,1.728,1.728,0,0,0-.368-.845c-.577-.617-1.628-.367-2.323.136-2.205,1.551-2.819,4.546-2.83,7.24a13.487,13.487,0,0,1-.04-2.984,3.09,3.09,0,0,0-1.1-2.639,3.4,3.4,0,0,0-1.709-.4,3.532,3.532,0,0,0-2.771.786,2.76,2.76,0,0,0,.107,3.407,10.641,10.641,0,0,0,2.87,2.3,6.4,6.4,0,0,1,2.051,1.955,1.887,1.887,0,0,1,.151.367h6.215a17.27,17.27,0,0,0,3.808-2.672Z" transform="translate(-83.049 -492.091)" fill="#007bff"/><path d="M465.33,336.153l13.937-6.983,5.145,4.715,1.224,3.37,1.286,5.664L485.79,345.4l-8.912,1.624s-4.748-.276-5.483.092a29.645,29.645,0,0,1-3.734,1l-2.33-5.737Z" transform="translate(-309.378 -226.016)" fill="#fbd56f"/></g></svg>