<svg xmlns="http://www.w3.org/2000/svg" viewBox="0 0 413.24 179.88"><defs><style>.cls-1{fill:#040405;}.cls-2{fill:#042af7;}</style></defs><title>Recurso 4</title><g id="Capa_2" data-name="Capa 2"><g id="Capa_1-2" data-name="Capa 1"><path class="cls-1" d="M256.23,49.41C265.34,23.89,283,7.64,309.85,3.64c26.32-3.91,47.48,6.24,63.37,27.6,2.37,3.18,1.73,4.34-1.36,6.35C345.46,54.71,318.19,70.36,290.93,86c-3.75,2.15-3.87,3.59-1.5,6.91,9.28,13,25.5,18.83,40.56,14.14S355.88,87.46,355.61,71c-.07-4,.93-6.29,4.47-8.27C366.45,59.1,372.56,55,378.66,51c2.41-1.6,3.4-2.29,4.5,1.46,13.18,45-23.12,90.81-69.53,86.6-27.09-2.46-45.52-17.79-56.09-42.71-.58-1.37-1.1-2.77-1.64-4.15C252.25,77.91,251.47,63.64,256.23,49.41ZM341.46,42a5.24,5.24,0,0,0-.68-1.16c-10.33-8.69-26.76-9.75-39.37-2.57-12.14,6.91-20.56,22.86-18.73,35.13.37,2.51,1.26,2.18,2.86,1.21,2.7-1.64,5.46-3.19,8.19-4.78Z"/><path class="cls-1" d="M165,78.08c-2.44,13.48-7.06,26-16.42,36.33-18.22,20-40.66,27.61-66.79,19.84-25.53-7.59-40.46-25.77-46.08-51.57-2.23-10.22-1.55-20.51,1-30.68.64-2.52,1.39-3.29,4-1.81,5.92,3.38,11.93,6.62,18.08,9.57,3.1,1.49,4.16,3.13,4,6.79-1.06,20.38,11.94,36.78,31.44,39.82,15.79,2.46,28.06-3.89,36.93-16.6,8.48-12.16,8.11-28.74-.08-40.94A37.19,37.19,0,0,0,71.79,45c-2.09,2.39-3.57,2.56-6.19,1.08-6.07-3.44-12.26-6.69-18.52-9.77-2.45-1.21-2.59-2.21-1.18-4.46,24.71-39.35,85.78-38.29,108.92,2A6.38,6.38,0,0,0,157,36.4c-.53,3.87,2.86,6.08,4,9.31C164.74,56.26,165.11,67.11,165,78.08Z"/><path class="cls-2" d="M164.58,78.08c.08-11-.3-21.82-4.05-32.37-1.15-3.23-4.53-5.44-4-9.31,2.22-.74,3.81.8,5.55,1.63,22.43,10.8,43.43,23.77,61.69,40.88a29.27,29.27,0,0,0,2.7,1.88c0-2.85,0-4.93,0-7,0-14.47-.12-28.95.05-43.42,0-3.39-.74-4.59-4.34-4.55-9.62.11-9.62-.06-4.82-8.34,2.49-4.29,5.31-8.44,7.33-12.94,1.65-3.67,4-4.66,7.73-4.49,6.14.27,12.32.28,18.46,0,3.76-.18,5.16.66,5.05,4.8-.35,13-.24,25.94-.25,38.91,0,1.93-.58,4,1.12,5.67-4.77,14.23-4,28.5-.33,42.78-1.69,5.69-.58,11.53-.78,17.3s-.12,11.65,0,17.47c.06,2.48-.54,3.48-3.28,3.55a17.54,17.54,0,0,1-11.52-3.44A699.43,699.43,0,0,0,164.58,78.08Z"/><path class="cls-1" d="M206.39,154.42c-67.17,0-134.33-.08-201.5.17-5.43,0-4.9-2.57-4.86-6,0-1.72.73-2.38,2.41-2.28,1.49.09,3,0,4.5,0q200.25,0,400.5,0c2.45,0,5.78-1.5,5.8,3.56,0,3.92-1.29,4.54-4.86,4.53Q307.39,154.33,206.39,154.42Z"/><path class="cls-1" d="M61.78,179.88H59.23V162.8H54.95v-2.52H66.2v2.52H61.78Z"/><path class="cls-1" d="M84.43,179.88H81.32l-5.15-19.6H79l3.84,15,3.78-15h2.91Z"/><path class="cls-1" d="M120.66,174.14h-2.58v-3.36h-3.19v-2.46h3.19v-3.7h2.58v3.7h3.19v2.46h-3.19Z"/><path class="cls-1" d="M154.18,179.88H151.6V162.75l-1.76-.06v-2.41h4.34Z"/><path class="cls-1" d="M187.89,179.88h-2.58l-8.65-14.45v14.45h-2.55v-19.6h2.55l8.65,14.39V160.28h2.58Z"/><path class="cls-1" d="M212.53,179.88H210V162.8H205.7v-2.52H217v2.52h-4.42Z"/><path class="cls-1" d="M244,179.88h-9.3v-19.6h9.35v2.52h-6.8v5.52h4.37l-.76,2.46h-3.61v6.8H244Z"/><path class="cls-1" d="M275.48,179.88h-2.6l-2-6a2.77,2.77,0,0,1-.64.06h-4.34v5.94h-2.55v-19.6H270a4.77,4.77,0,0,1,4.06,1.82,7.47,7.47,0,0,1,1.37,4.62,9.47,9.47,0,0,1-1,5,5.31,5.31,0,0,1-1.29,1.37Zm-9.63-8.4h3.78a2.62,2.62,0,0,0,2.24-.87,3.88,3.88,0,0,0,.78-1.79,15.28,15.28,0,0,0,.14-2.1,4.08,4.08,0,0,0-.91-3,3.73,3.73,0,0,0-2.65-.85h-3.39Z"/><path class="cls-1" d="M308.43,179.88h-2.58l-8.65-14.45v14.45h-2.55v-19.6h2.55l8.65,14.39V160.28h2.58Z"/><path class="cls-1" d="M337.72,179.88h-9.3v-19.6h9.35v2.52H331v5.52h4.37l-.76,2.46H331v6.8h6.75Z"/><path class="cls-1" d="M361.66,179.88h-2.55V162.8h-4.28v-2.52h11.26v2.52h-4.42Z"/><path class="cls-2" d="M164.88,114.44v4.43h-8.1v3.67h6.75V127h-6.75v8.53h-5.13V114.44Z"/><path class="cls-2" d="M168.24,128.8V114.44h5.13v14.23c0,1.67.46,2.78,2.7,2.78s2.7-1.11,2.7-2.78V114.44h5.13V128.8c0,4.43-1.73,7.07-7.83,7.07S168.24,133.23,168.24,128.8Z"/><path class="cls-2" d="M188.06,135.49V114.44h5.13v16.63h7.42v4.43Z"/><path class="cls-2" d="M204,135.49V114.44h5.13v16.63h7.42v4.43Z"/></g></g></svg>